<svg width="185" height="56" fill="none" xmlns="http://www.w3.org/2000/svg"><path d="M19.843 0h-6.585l13.544 26.48-6.772 13.832h7.975a3.12 3.12 0 002.803-1.75l4.772-9.748a5.195 5.195 0 00-.04-4.651L24.697 2.97A5.455 5.455 0 0019.843 0z" fill="url(#paint0_linear_3436_31)"/><path d="M19.843 0h-6.585l13.544 26.48-6.772 13.832h7.975a3.12 3.12 0 002.803-1.75l4.772-9.748a5.195 5.195 0 00-.04-4.651L24.697 2.97A5.455 5.455 0 0019.843 0z" fill="url(#paint1_linear_3436_31)"/><path d="M24.699 2.97c5.398 10.556 5.82 15.916 2.103 23.51L20.03 40.311h7.975c1.192 0 2.28-.68 2.804-1.75l4.771-9.748a5.195 5.195 0 00-.04-4.651L24.698 2.97z" fill="url(#paint2_linear_3436_31)"/><path style="mix-blend-mode:overlay" d="M24.699 2.97c5.398 10.556 5.82 15.916 2.103 23.51L20.03 40.311h7.975c1.192 0 2.28-.68 2.804-1.75l4.771-9.748a5.195 5.195 0 00-.04-4.651L24.698 2.97z" fill="url(#paint3_linear_3436_31)"/><path opacity=".42" d="M35.54 24.165l-3.06-5.981c.21 3.427-.618 6.55-2.398 10.183l-5.847 11.945h3.767c1.192 0 2.28-.68 2.804-1.75l4.772-9.748a5.195 5.195 0 00-.041-4.651l.002.002z" fill="url(#paint4_linear_3436_31)"/><path d="M16.267 56h6.584L9.308 29.52l6.771-13.832H8.105c-1.192 0-2.28.68-2.804 1.75L.529 27.186a5.195 5.195 0 00.041 4.65L11.411 53.03A5.455 5.455 0 0016.267 56z" fill="url(#paint5_linear_3436_31)"/><path d="M16.267 56h6.584L9.308 29.52l6.771-13.832H8.105c-1.192 0-2.28.68-2.804 1.75L.529 27.186a5.195 5.195 0 00.041 4.65L11.411 53.03A5.455 5.455 0 0016.267 56z" fill="url(#paint6_linear_3436_31)"/><path d="M11.409 53.028C6.01 42.47 5.588 37.11 9.306 29.518l6.771-13.832H8.103c-1.192 0-2.28.679-2.804 1.75l-4.77 9.748a5.195 5.195 0 00.041 4.651L11.411 53.03l-.002-.002z" fill="url(#paint7_linear_3436_31)"/><path d="M11.409 53.028C6.01 42.47 5.588 37.11 9.306 29.518l6.771-13.832H8.103c-1.192 0-2.28.679-2.804 1.75l-4.77 9.748a5.195 5.195 0 00.041 4.651L11.411 53.03l-.002-.002z" fill="url(#paint8_linear_3436_31)"/><path opacity=".32" d="M.568 31.833l3.058 5.98c-.209-3.424.619-6.549 2.4-10.183l5.846-11.944H8.105c-1.192 0-2.28.679-2.804 1.75L.529 27.184a5.195 5.195 0 00.041 4.651l-.002-.002z" fill="url(#paint9_linear_3436_31)"/><path d="M61.751 40.384c-1.728 0-3.338-.277-4.832-.832a11.55 11.55 0 01-3.84-2.432 11.419 11.419 0 01-2.56-3.68c-.597-1.408-.896-2.955-.896-4.64 0-1.685.299-3.232.896-4.64a11.42 11.42 0 012.56-3.68 11.49 11.49 0 013.872-2.4c1.472-.576 3.083-.864 4.832-.864 1.942 0 3.691.341 5.248 1.024A10.09 10.09 0 0171 21.184l-3.328 3.072c-.768-.875-1.621-1.525-2.56-1.952-.938-.448-1.962-.672-3.072-.672-1.045 0-2.005.17-2.88.512a6.53 6.53 0 00-2.272 1.472 6.927 6.927 0 00-1.504 2.272c-.341.875-.512 1.845-.512 2.912s.171 2.037.512 2.912a6.926 6.926 0 001.504 2.272c.64.64 1.398 1.13 2.272 1.472.875.341 1.835.512 2.88.512 1.11 0 2.134-.213 3.072-.64.939-.448 1.792-1.12 2.56-2.016L71 36.384a10.372 10.372 0 01-3.968 2.976c-1.557.683-3.317 1.024-5.28 1.024zm23.16 0c-1.77 0-3.413-.288-4.928-.864a11.853 11.853 0 01-3.904-2.432 11.419 11.419 0 01-2.56-3.68c-.597-1.408-.896-2.944-.896-4.608 0-1.664.299-3.2.896-4.608a11.188 11.188 0 012.592-3.68 11.853 11.853 0 013.904-2.432c1.494-.576 3.115-.864 4.864-.864 1.771 0 3.392.288 4.864.864 1.494.576 2.784 1.387 3.872 2.432a11.188 11.188 0 012.592 3.68c.619 1.387.928 2.923.928 4.608 0 1.664-.309 3.21-.928 4.64a11.187 11.187 0 01-2.592 3.68c-1.088 1.024-2.378 1.824-3.872 2.4-1.472.576-3.082.864-4.832.864zm-.032-4.416c1.003 0 1.92-.17 2.752-.512a6.598 6.598 0 002.24-1.472 6.528 6.528 0 001.472-2.272c.363-.875.544-1.845.544-2.912s-.181-2.037-.544-2.912a6.529 6.529 0 00-1.472-2.272 6.27 6.27 0 00-2.208-1.472 7.432 7.432 0 00-2.784-.512c-1.002 0-1.93.17-2.784.512a6.68 6.68 0 00-2.208 1.472 6.927 6.927 0 00-1.504 2.272c-.341.875-.512 1.845-.512 2.912 0 1.045.171 2.016.512 2.912a7.196 7.196 0 001.472 2.272c.64.64 1.387 1.13 2.24 1.472a7.44 7.44 0 002.784.512zM101.031 40V17.6h10.176c2.432 0 4.576.47 6.432 1.408 1.856.917 3.307 2.208 4.352 3.872 1.046 1.664 1.568 3.637 1.568 5.92 0 2.261-.522 4.235-1.568 5.92-1.045 1.664-2.496 2.965-4.352 3.904-1.856.917-4 1.376-6.432 1.376h-10.176zm5.184-4.256h4.736c1.494 0 2.784-.277 3.872-.832 1.11-.576 1.963-1.387 2.56-2.432.619-1.045.928-2.272.928-3.68 0-1.43-.309-2.656-.928-3.68-.597-1.045-1.45-1.845-2.56-2.4-1.088-.576-2.378-.864-3.872-.864h-4.736v13.888zM127.469 40V17.6h5.184V40h-5.184zm10.5 0V17.6h4.288l13.216 16.128h-2.08V17.6h5.12V40h-4.256l-13.248-16.128h2.08V40h-5.12zm36.66.384c-1.771 0-3.403-.277-4.896-.832a11.91 11.91 0 01-3.872-2.432 11.408 11.408 0 01-2.56-3.68c-.598-1.408-.896-2.955-.896-4.64 0-1.685.298-3.232.896-4.64a11.167 11.167 0 012.592-3.68 11.414 11.414 0 013.904-2.4c1.493-.576 3.136-.864 4.928-.864 1.984 0 3.765.33 5.344.992 1.6.661 2.944 1.621 4.032 2.88l-3.328 3.072c-.811-.853-1.696-1.483-2.656-1.888-.96-.427-2.006-.64-3.136-.64-1.088 0-2.08.17-2.976.512a6.795 6.795 0 00-2.336 1.472 6.916 6.916 0 00-1.504 2.272c-.342.875-.512 1.845-.512 2.912 0 1.045.17 2.005.512 2.88a7.287 7.287 0 001.504 2.304 6.86 6.86 0 002.304 1.472c.896.341 1.877.512 2.944.512a9.35 9.35 0 002.976-.48c.981-.341 1.93-.907 2.848-1.696l2.944 3.744c-1.216.917-2.635 1.621-4.256 2.112-1.6.49-3.2.736-4.8.736zm4.32-3.52v-8.416h4.736v9.088l-4.736-.672z" fill="#3D3B3B"/><defs><linearGradient id="paint0_linear_3436_31" x1="13.258" y1="20.156" x2="36.111" y2="20.156" gradientUnits="userSpaceOnUse"><stop stop-color="#8A0BFF"/><stop offset="1" stop-color="#2A0056"/></linearGradient><linearGradient id="paint1_linear_3436_31" x1="9.793" y1="13.632" x2="29.399" y2="25.369" gradientUnits="userSpaceOnUse"><stop stop-color="#8A0BFF" stop-opacity="0"/><stop offset="1" stop-color="#2A0056"/></linearGradient><linearGradient id="paint2_linear_3436_31" x1="28.069" y1="40.312" x2="28.069" y2="2.97" gradientUnits="userSpaceOnUse"><stop stop-color="#A553FF"/><stop offset="1" stop-color="#AE38FF"/></linearGradient><linearGradient id="paint3_linear_3436_31" x1="26.365" y1="22.936" x2="41.663" y2="27.889" gradientUnits="userSpaceOnUse"><stop stop-color="#AF53FF"/><stop offset=".16" stop-color="#AE4DFF" stop-opacity=".8"/><stop offset=".39" stop-color="#AE45FF" stop-opacity=".52"/><stop offset=".6" stop-color="#AE3FFF" stop-opacity=".29"/><stop offset=".78" stop-color="#AE3BFF" stop-opacity=".13"/><stop offset=".92" stop-color="#AE38FF" stop-opacity=".04"/><stop offset="1" stop-color="#AE38FF" stop-opacity="0"/></linearGradient><linearGradient id="paint4_linear_3436_31" x1="16.338" y1="23.335" x2="36.612" y2="33.309" gradientUnits="userSpaceOnUse"><stop stop-color="#8A0BFF"/><stop offset="1" stop-color="#2A0056" stop-opacity="0"/></linearGradient><linearGradient id="paint5_linear_3436_31" x1="-.001" y1="35.844" x2="22.851" y2="35.844" gradientUnits="userSpaceOnUse"><stop stop-color="#3D0056"/><stop offset="1" stop-color="#FF0BA2"/></linearGradient><linearGradient id="paint6_linear_3436_31" x1="11.019" y1="30.67" x2="24.466" y2="49.147" gradientUnits="userSpaceOnUse"><stop stop-color="#3D0056"/><stop offset="1" stop-color="#E33FC5"/></linearGradient><linearGradient id="paint7_linear_3436_31" x1="8.038" y1="53.028" x2="8.038" y2="15.686" gradientUnits="userSpaceOnUse"><stop stop-color="#DF38FF"/><stop offset="1" stop-color="#FF39FF"/></linearGradient><linearGradient id="paint8_linear_3436_31" x1="-4.35" y1="26.072" x2="23.22" y2="38.698" gradientUnits="userSpaceOnUse"><stop stop-color="#9E0082"/><stop offset="1" stop-color="#FF39FF" stop-opacity="0"/></linearGradient><linearGradient id="paint9_linear_3436_31" x1="19.771" y1="32.663" x2="-.503" y2="22.691" gradientUnits="userSpaceOnUse"><stop stop-color="#8A0BFF"/><stop offset="1" stop-color="#2A0056" stop-opacity="0"/></linearGradient></defs></svg>