<svg width="131" height="56" fill="none" xmlns="http://www.w3.org/2000/svg"><path d="M75.14 32.047c0-.406-.062-.771-.187-1.094-.115-.333-.333-.635-.656-.906-.323-.281-.776-.557-1.36-.828-.583-.271-1.338-.552-2.265-.844a28.657 28.657 0 01-2.938-1.125 12.068 12.068 0 01-2.437-1.453 6.55 6.55 0 01-1.656-1.953c-.396-.74-.594-1.6-.594-2.578 0-.948.208-1.808.625-2.578.416-.782 1-1.448 1.75-2 .75-.563 1.635-.995 2.656-1.297 1.031-.303 2.162-.454 3.39-.454 1.678 0 3.141.303 4.391.907 1.25.604 2.22 1.432 2.907 2.484.697 1.052 1.046 2.255 1.046 3.61h-4.656c0-.667-.14-1.25-.422-1.75-.27-.51-.687-.912-1.25-1.204-.552-.291-1.25-.437-2.093-.437-.813 0-1.49.125-2.032.375-.541.24-.947.568-1.218.984a2.425 2.425 0 00-.407 1.375c0 .386.094.735.282 1.047.197.313.49.604.875.875s.859.526 1.421.766c.563.24 1.214.474 1.954.703 1.24.375 2.328.797 3.265 1.265.948.47 1.74.995 2.375 1.579a5.87 5.87 0 011.438 1.984c.323.74.484 1.578.484 2.516 0 .99-.193 1.875-.578 2.656a5.456 5.456 0 01-1.672 1.984c-.729.542-1.599.953-2.61 1.235-1.01.28-2.14.422-3.39.422a12.85 12.85 0 01-3.328-.438 10.108 10.108 0 01-2.984-1.36 6.852 6.852 0 01-2.125-2.312c-.532-.937-.797-2.047-.797-3.328h4.703c0 .708.11 1.307.328 1.797.219.49.526.885.922 1.187.406.302.885.521 1.437.657a7.873 7.873 0 001.844.203c.813 0 1.48-.115 2-.344.531-.23.922-.547 1.172-.953.26-.406.39-.865.39-1.375zm12.61 4.047l4.484-15h4.829l-6.797 19.453c-.146.427-.344.885-.594 1.375a5.57 5.57 0 01-.984 1.39 4.608 4.608 0 01-1.547 1.094c-.615.282-1.37.422-2.266.422-.427 0-.776-.026-1.047-.078-.27-.052-.594-.125-.969-.219v-3.297h.36c.125.01.245.016.36.016.593 0 1.077-.068 1.452-.203.375-.136.677-.344.906-.625.23-.271.412-.625.547-1.063l1.266-3.265zm-1.875-15l3.672 12.25.64 4.765-3.062.328-6.078-17.343h4.828zm17.391 3.61V38h-4.5V21.094h4.218l.282 3.61zm-.657 4.25h-1.218c0-1.25.161-2.376.484-3.376.323-1.01.776-1.87 1.359-2.578a5.845 5.845 0 012.078-1.64c.813-.386 1.719-.579 2.719-.579.792 0 1.516.115 2.172.344a4.17 4.17 0 011.688 1.094c.479.5.843 1.161 1.093 1.984.261.823.391 1.828.391 3.016V38h-4.531V27.203c0-.75-.104-1.333-.313-1.75a1.752 1.752 0 00-.922-.875c-.395-.177-.885-.265-1.468-.265-.605 0-1.131.12-1.579.359-.437.24-.802.573-1.093 1a4.729 4.729 0 00-.641 1.469 7.195 7.195 0 00-.219 1.812zm21.172 5.843c.552 0 1.042-.104 1.469-.313.427-.218.76-.52 1-.906.25-.396.38-.86.391-1.39h4.234c-.01 1.187-.328 2.244-.953 3.171-.625.917-1.464 1.641-2.516 2.172-1.052.521-2.229.782-3.531.782-1.313 0-2.458-.22-3.437-.657a6.7 6.7 0 01-2.422-1.812 7.942 7.942 0 01-1.454-2.719 11.264 11.264 0 01-.484-3.344v-.453c0-1.198.162-2.312.484-3.344.323-1.041.808-1.948 1.454-2.718a6.624 6.624 0 012.422-1.828c.968-.438 2.104-.657 3.406-.657 1.385 0 2.599.266 3.64.797a5.94 5.94 0 012.469 2.281c.604.98.912 2.141.922 3.485h-4.234a3.536 3.536 0 00-.36-1.532 2.587 2.587 0 00-.969-1.093c-.416-.282-.932-.422-1.546-.422-.657 0-1.193.14-1.61.422-.416.27-.739.646-.968 1.125a5.586 5.586 0 00-.485 1.61 13.544 13.544 0 00-.125 1.874v.453c0 .657.042 1.287.125 1.89.083.605.24 1.142.469 1.61.239.469.568.839.984 1.11.417.27.959.406 1.625.406z" fill="#27284A"/><g clip-path="url(#clip0_3436_17)"><path d="M0 14.005v28L24.247 56l24.248-13.995L0 14.005z" fill="url(#paint0_linear_3436_17)"/><path d="M0 14.005v28l48.495-28L24.248 0 0 14.005z" fill="url(#paint1_linear_3436_17)"/></g><defs><linearGradient id="paint0_linear_3436_17" x1="9.171" y1="22.994" x2="58.537" y2="85.216" gradientUnits="userSpaceOnUse"><stop stop-color="#7D33A9"/><stop offset=".07" stop-color="#A832C4"/><stop offset=".15" stop-color="#CD31DB"/><stop offset=".22" stop-color="#E831EC"/><stop offset=".28" stop-color="#F931F6"/><stop offset=".33" stop-color="#FF31FA"/></linearGradient><linearGradient id="paint1_linear_3436_17" x1="48.495" y1="21.002" x2="0" y2="21.002" gradientUnits="userSpaceOnUse"><stop stop-color="#531DB5"/><stop offset="1" stop-color="#8733FF"/></linearGradient><clipPath id="clip0_3436_17"><path fill="#fff" d="M0 0h48.495v56H0z"/></clipPath></defs></svg>