<svg width="26" height="26" fill="none" xmlns="http://www.w3.org/2000/svg"><path d="M6.573 24.978a.843.843 0 00.063-.324V9.591a.845.845 0 00-.843-.846H2.2a.845.845 0 00-.845.846v15.063a.843.843 0 00.845.846h3.593a.843.843 0 00.78-.522zM2.102 6.744a3.41 3.41 0 103.788-5.67 3.41 3.41 0 00-3.788 5.67zM25.36 25.011a.776.776 0 00.058-.297l-.004-7.282v-.062c0-3.181 0-8.875-6.137-8.875-2.788 0-4.095 1.019-4.977 2.344V9.525a.777.777 0 00-.777-.777H9.79a.775.775 0 00-.775.777v15.198a.775.775 0 00.775.777h3.732a.777.777 0 00.766-.777v-8.15c.095-1.096.58-3.534 2.954-3.534 3.066 0 2.757 3.563 2.757 4.618v7.057a.776.776 0 00.777.777h3.864a.776.776 0 00.719-.48z" fill="#fff"/></svg>