<svg width="40" height="40" fill="none" xmlns="http://www.w3.org/2000/svg"><g clip-path="url(#clip0_1_2876)"><path d="M20 0a20 20 0 100 40 20 20 0 000-40z" fill="#7F3A6A"/><g clip-path="url(#clip1_1_2876)" fill="#fff"><path d="M30.979 15.468c-.052-1.169-.241-1.973-.512-2.669-.28-.74-.709-1.4-1.272-1.951a5.414 5.414 0 00-1.947-1.268c-.7-.27-1.5-.46-2.669-.511C23.402 9.013 23.028 9 20.041 9s-3.361.013-4.534.064c-1.17.052-1.973.241-2.67.512-.738.28-1.4.709-1.95 1.272a5.417 5.417 0 00-1.268 1.947c-.27.7-.46 1.5-.512 2.669-.055 1.177-.068 1.551-.068 4.538s.013 3.36.064 4.534c.052 1.17.24 1.973.512 2.67.279.738.713 1.4 1.272 1.95.55.559 1.216.993 1.947 1.268.7.27 1.5.46 2.668.512 1.174.051 1.548.064 4.535.064 2.986 0 3.36-.013 4.534-.064 1.169-.052 1.972-.241 2.668-.512a5.627 5.627 0 003.22-3.219c.27-.7.46-1.5.51-2.669.052-1.173.065-1.547.065-4.534s-.004-3.36-.055-4.534zm-1.982 8.982c-.047 1.075-.227 1.655-.378 2.042a3.65 3.65 0 01-2.089 2.088c-.386.15-.97.331-2.041.379-1.16.051-1.509.064-4.444.064s-3.288-.013-4.444-.064c-1.074-.048-1.654-.228-2.041-.378a3.385 3.385 0 01-1.264-.822 3.42 3.42 0 01-.82-1.263c-.151-.387-.332-.971-.379-2.041-.051-1.16-.064-1.509-.064-4.444 0-2.936.013-3.288.064-4.444.048-1.075.228-1.655.378-2.042.177-.477.456-.91.826-1.263a3.416 3.416 0 011.263-.82c.387-.151.972-.332 2.042-.38 1.16-.05 1.508-.064 4.443-.064 2.94 0 3.288.013 4.444.065 1.075.047 1.655.228 2.042.378.477.176.91.456 1.263.82.366.358.645.787.821 1.264.15.387.331.972.378 2.042.052 1.16.065 1.508.065 4.444 0 2.935-.013 3.279-.065 4.44z"/><path d="M20.04 14.35a5.653 5.653 0 00-5.65 5.652 5.653 5.653 0 005.65 5.652 5.653 5.653 0 005.652-5.652 5.653 5.653 0 00-5.651-5.651zm0 9.318a3.667 3.667 0 11.002-7.333 3.667 3.667 0 01-.001 7.333zm7.195-9.541a1.32 1.32 0 11-2.639 0 1.32 1.32 0 012.64 0z"/></g></g><defs><clipPath id="clip0_1_2876"><path fill="#fff" d="M0 0h40v40H0z"/></clipPath><clipPath id="clip1_1_2876"><path fill="#fff" transform="translate(9 9)" d="M0 0h22v22H0z"/></clipPath></defs></svg>