<svg width="194" height="48" viewBox="0 0 194 48" fill="none" xmlns="http://www.w3.org/2000/svg">
<path d="M180.877 47.6V39.312L182.165 42.644L173.401 28H179.253L185.581 38.612H182.193L188.549 28H193.925L185.189 42.644L186.421 39.312V47.6H180.877Z" fill="#803A6A"/>
<path d="M163.108 36.596H172.152V40.88H163.108V36.596ZM163.5 47.6H157.956V28H173.328V32.284H163.5V47.6Z" fill="#803A6A"/>
<path d="M148.468 47.6V28H154.012V47.6H148.468Z" fill="#803A6A"/>
<path d="M132.369 43.26L132.061 37.044L140.489 28H146.593L138.193 37.1L135.113 40.32L132.369 43.26ZM127.413 47.6V28H132.901V47.6H127.413ZM140.573 47.6L134.189 39.508L137.801 35.644L147.013 47.6H140.573Z" fill="#DF286A"/>
<path d="M106.687 47.6V28H115.647C117.439 28 118.979 28.2893 120.267 28.868C121.573 29.4467 122.581 30.2867 123.291 31.388C124 32.4707 124.355 33.7587 124.355 35.252C124.355 36.7267 124 38.0053 123.291 39.088C122.581 40.152 121.573 40.9733 120.267 41.552C118.979 42.112 117.439 42.392 115.647 42.392H109.767L112.231 40.068V47.6H106.687ZM118.811 47.6L113.939 40.46H119.847L124.747 47.6H118.811ZM112.231 40.656L109.767 38.108H115.311C116.468 38.108 117.327 37.856 117.887 37.352C118.465 36.848 118.755 36.148 118.755 35.252C118.755 34.3373 118.465 33.628 117.887 33.124C117.327 32.62 116.468 32.368 115.311 32.368H109.767L112.231 29.82V40.656Z" fill="#803A6A"/>
<path d="M82.3228 47.6L90.9748 28H96.4348L105.115 47.6H99.3468L92.5708 30.716H94.7548L87.9788 47.6H82.3228ZM87.0548 43.792L88.4828 39.704H98.0588L99.4868 43.792H87.0548Z" fill="#803A6A"/>
<path d="M57.96 47.6V28H62.524L70.644 41.328H68.236L76.132 28H80.696L80.752 47.6H75.656L75.6 35.756H76.468L70.56 45.668H68.096L62.02 35.756H63.084V47.6H57.96Z" fill="#EB8B27"/>
<rect x="38.232" y="18.7986" width="7.30038" height="29.2015" fill="url(#paint0_linear_7_952)"/>
<rect x="26.9164" y="26.0989" width="7.6654" height="21.9011" fill="url(#paint1_linear_7_952)"/>
<rect x="15.9657" y="33.3992" width="7.6654" height="14.6008" fill="url(#paint2_linear_7_952)"/>
<rect x="5.01532" y="38.5095" width="7.6654" height="9.49049" fill="url(#paint3_linear_7_952)"/>
<path d="M39.3269 16.7909L34.3991 12.7757L39.3269 6.02281L36.9542 4.19772L47.9048 0L46.6272 11.8631L44.2546 9.85551L39.3269 16.7909Z" fill="#803A6A"/>
<path d="M36.5894 13.688C29.8365 21.3534 19.981 29.7488 1 31.0264C21.5871 32.6325 34.5209 21.11 38.4144 15.1481L36.5894 13.688Z" fill="#803A6A"/>
<defs>
<linearGradient id="paint0_linear_7_952" x1="39.964" y1="42.1765" x2="47.6419" y2="40.3721" gradientUnits="userSpaceOnUse">
<stop stop-color="#DF286A"/>
<stop offset="0.0001" stop-color="#DF286A"/>
<stop offset="0.479167" stop-color="#E3484D"/>
<stop offset="0.479267" stop-color="#E3484D"/>
<stop offset="1" stop-color="#E86A2D"/>
</linearGradient>
<linearGradient id="paint1_linear_7_952" x1="28.7351" y1="43.6323" x2="36.4112" y2="41.1068" gradientUnits="userSpaceOnUse">
<stop stop-color="#DF286A"/>
<stop offset="0.0001" stop-color="#DF286A"/>
<stop offset="0.479167" stop-color="#E3484D"/>
<stop offset="0.479267" stop-color="#E3484D"/>
<stop offset="1" stop-color="#E86A2D"/>
</linearGradient>
<linearGradient id="paint2_linear_7_952" x1="17.7844" y1="45.0881" x2="24.6252" y2="41.712" gradientUnits="userSpaceOnUse">
<stop stop-color="#DF286A"/>
<stop offset="0.0001" stop-color="#DF286A"/>
<stop offset="0.479167" stop-color="#E3484D"/>
<stop offset="0.479267" stop-color="#E3484D"/>
<stop offset="1" stop-color="#E86A2D"/>
</linearGradient>
<linearGradient id="paint3_linear_7_952" x1="6.83397" y1="46.1073" x2="12.2302" y2="42.0102" gradientUnits="userSpaceOnUse">
<stop stop-color="#DF286A"/>
<stop offset="0.0001" stop-color="#DF286A"/>
<stop offset="0.479167" stop-color="#E3484D"/>
<stop offset="0.479267" stop-color="#E3484D"/>
<stop offset="1" stop-color="#E86A2D"/>
</linearGradient>
</defs>
</svg>
