<svg width="195" height="56" fill="none" xmlns="http://www.w3.org/2000/svg"><path d="M61.016 43V17.08h5.248V43h-5.248zm9.217 0V17.08h3.68l5.76 13.504V17.08h4.352V43h-3.52l-5.76-14.336V43h-4.512zm17.72 0V17.08h10.943v3.584h-5.664v7.008h4.8v3.68h-4.8V43h-5.28zm13.593 0V17.08h5.28v22.336h6.08V43h-11.36zm20.733.352c-1.962 0-3.488-.33-4.576-.992-1.088-.683-1.856-1.653-2.304-2.912-.426-1.28-.64-2.827-.64-4.64V17.08h5.216v18.464c0 .64.043 1.27.128 1.888.107.619.32 1.12.64 1.504.342.384.854.576 1.536.576.704 0 1.216-.192 1.536-.576.342-.384.555-.885.64-1.504.086-.619.128-1.248.128-1.888V17.08h5.216v17.728c0 1.813-.224 3.36-.672 4.64-.426 1.259-1.184 2.23-2.272 2.912-1.088.661-2.613.992-4.576.992zM133.483 43V17.08h11.296v3.648h-6.016v6.88h4.64v3.68h-4.64v8.128h6.08V43h-11.36zm14.032 0V17.08h3.68l5.76 13.504V17.08h4.352V43h-3.52l-5.76-14.336V43h-4.512zm24.918.352c-1.92 0-3.445-.363-4.576-1.088-1.109-.725-1.888-1.728-2.336-3.008-.448-1.301-.672-2.805-.672-4.512v-9.312c0-1.792.224-3.328.672-4.608.448-1.301 1.227-2.304 2.336-3.008 1.131-.704 2.656-1.056 4.576-1.056 1.856 0 3.307.31 4.352.928 1.067.619 1.814 1.493 2.24 2.624.448 1.13.672 2.443.672 3.936v2.176h-5.12v-2.432c0-.597-.032-1.152-.096-1.664-.064-.533-.245-.96-.544-1.28-.277-.341-.768-.512-1.472-.512s-1.216.17-1.536.512c-.32.341-.522.79-.608 1.344-.085.533-.128 1.13-.128 1.792V35.96c0 .725.054 1.365.16 1.92.128.533.352.95.672 1.248.342.277.822.416 1.44.416.683 0 1.163-.16 1.44-.48.299-.341.48-.79.544-1.344a11.49 11.49 0 0 0 .128-1.76v-2.528h5.12v2.144c0 1.515-.213 2.859-.64 4.032a5.484 5.484 0 0 1-2.208 2.752c-1.045.661-2.517.992-4.416.992zM182.921 43V17.08h11.296v3.648h-6.016v6.88h4.64v3.68h-4.64v8.128h6.08V43h-11.36z" fill="#2E0573"/><g clip-path="url(#clip0_3436_24)"><path d="M17.179 6.897L24.252 0l7.072 6.897-7.072 12.246-7.073-12.246zm7.073 29.95l-7.073 12.246 7.073 6.898 7.072-6.898-7.072-12.245z" fill="url(#paint0_linear_3436_24)"/><path d="M38.987 11.324l9.507 2.674-2.444 9.571H31.905l7.073-12.245h.01zM16.58 32.422H2.444L0 41.993l9.507 2.674 7.073-12.245z" fill="url(#paint1_linear_3436_24)"/><path d="M2.444 23.57L0 13.997l9.507-2.674 7.073 12.245H2.444zm29.47 8.852l7.073 12.245 9.507-2.674-2.444-9.571H31.905h.01z" fill="url(#paint2_linear_3436_24)"/></g><defs><linearGradient id="paint0_linear_3436_24" x1="24.252" y1="56" x2="24.252" gradientUnits="userSpaceOnUse"><stop stop-color="#7D33A9"/><stop offset=".12" stop-color="#A832C4"/><stop offset=".25" stop-color="#CD31DB"/><stop offset=".37" stop-color="#E831EC"/><stop offset=".48" stop-color="#F931F6"/><stop offset=".56" stop-color="#FF31FA"/></linearGradient><linearGradient id="paint1_linear_3436_24" x1="24.252" y1="44.676" x2="24.252" y2="11.324" gradientUnits="userSpaceOnUse"><stop stop-color="#531DB5"/><stop offset="1" stop-color="#8733FF"/></linearGradient><linearGradient id="paint2_linear_3436_24" x1="24.252" y1="44.676" x2="24.252" y2="11.324" gradientUnits="userSpaceOnUse"><stop stop-color="#09F"/><stop offset=".1" stop-color="#0EB1FF"/><stop offset=".23" stop-color="#1FCDFF"/><stop offset=".38" stop-color="#2DE3FF"/><stop offset=".55" stop-color="#36F3FF"/><stop offset=".73" stop-color="#3CFCFF"/><stop offset="1" stop-color="#3EFFFF"/></linearGradient><clipPath id="clip0_3436_24"><path fill="#fff" d="M0 0H48.494V56H0z"/></clipPath></defs></svg>