<svg width="1440" height="944" fill="none" xmlns="http://www.w3.org/2000/svg"><g opacity=".4" clip-path="url(#clip0_1_6563)"><mask id="a" style="mask-type:luminance" maskUnits="userSpaceOnUse" x="0" y="0" width="1440" height="944"><path d="M1440 0H0v944h1440V0z" fill="#fff"/></mask><g mask="url(#a)"><path d="M1440 0H0v944h1440V0z" fill="#fff"/><mask id="b" style="mask-type:luminance" maskUnits="userSpaceOnUse" x="0" y="0" width="1440" height="944"><path d="M1440 0H0v944h1440V0z" fill="#fff"/></mask><g opacity=".2" mask="url(#b)"><path d="M1440 0H0v944h1440V0z" fill="#fff"/><g filter="url(#filter0_f_1_6563)" fill="#7F3A6A"><path d="M195 817c107.696 0 195-87.304 195-195s-87.304-195-195-195C87.305 427 0 514.304 0 622s87.305 195 195 195zm330-301c107.696 0 195-87.304 195-195s-87.304-195-195-195-195 87.304-195 195 87.304 195 195 195z"/></g><g filter="url(#filter1_f_1_6563)"><path d="M1196 798c115.98 0 210-95.363 210-213s-94.02-213-210-213-210 95.363-210 213 94.02 213 210 213z" fill="#DF286A"/></g><g filter="url(#filter2_f_1_6563)"><path d="M207 471.943c95.545 0 173-78.561 173-175.472C380 199.561 302.545 121 207 121S34 199.561 34 296.471c0 96.911 77.455 175.472 173 175.472z" fill="#DF286A"/></g><g filter="url(#filter3_f_1_6563)"><path d="M1060 639c117.64 0 213-95.363 213-213s-95.36-213-213-213-213 95.363-213 213 95.36 213 213 213z" fill="#EB8B27"/><path d="M692 746c117.64 0 213-95.363 213-213s-95.36-213-213-213-213 95.363-213 213 95.36 213 213 213z" fill="#E9A923"/></g></g></g></g><defs><filter id="filter0_f_1_6563" x="-416" y="-290" width="1552" height="1523" filterUnits="userSpaceOnUse" color-interpolation-filters="sRGB"><feFlood flood-opacity="0" result="BackgroundImageFix"/><feBlend in="SourceGraphic" in2="BackgroundImageFix" result="shape"/><feGaussianBlur stdDeviation="208" result="effect1_foregroundBlur_1_6563"/></filter><filter id="filter1_f_1_6563" x="495" y="-119" width="1402" height="1408" filterUnits="userSpaceOnUse" color-interpolation-filters="sRGB"><feFlood flood-opacity="0" result="BackgroundImageFix"/><feBlend in="SourceGraphic" in2="BackgroundImageFix" result="shape"/><feGaussianBlur stdDeviation="245.5" result="effect1_foregroundBlur_1_6563"/></filter><filter id="filter2_f_1_6563" x="-457" y="-370" width="1328" height="1332.94" filterUnits="userSpaceOnUse" color-interpolation-filters="sRGB"><feFlood flood-opacity="0" result="BackgroundImageFix"/><feBlend in="SourceGraphic" in2="BackgroundImageFix" result="shape"/><feGaussianBlur stdDeviation="245.5" result="effect1_foregroundBlur_1_6563"/></filter><filter id="filter3_f_1_6563" x="26" y="-240" width="1700" height="1439" filterUnits="userSpaceOnUse" color-interpolation-filters="sRGB"><feFlood flood-opacity="0" result="BackgroundImageFix"/><feBlend in="SourceGraphic" in2="BackgroundImageFix" result="shape"/><feGaussianBlur stdDeviation="226.5" result="effect1_foregroundBlur_1_6563"/></filter><clipPath id="clip0_1_6563"><path fill="#fff" d="M0 0h1440v944H0z"/></clipPath></defs></svg>