<svg width="375" height="1004" fill="none" xmlns="http://www.w3.org/2000/svg"><g clip-path="url(#clip0_1_6547)"><mask id="a" style="mask-type:luminance" maskUnits="userSpaceOnUse" x="0" y="0" width="375" height="1004"><path d="M375 0H0v1004h375V0z" fill="#fff"/></mask><g opacity=".3" mask="url(#a)"><path d="M375 0H0v1004h375V0z" fill="#fff"/><g filter="url(#filter0_f_1_6547)"><path d="M69 146c65.17 0 118-52.83 118-118S134.17-90 69-90-49-37.17-49 28 3.83 146 69 146z" fill="#7F3A6A"/></g><g filter="url(#filter1_f_1_6547)"><path d="M58 386c65.17 0 118-53.726 118-120S123.17 146 58 146-60 199.726-60 266-7.17 386 58 386z" fill="#DF286A"/></g><g filter="url(#filter2_f_1_6547)"><path d="M321 701c67.931 0 123-55.069 123-123s-55.069-123-123-123-123 55.069-123 123 55.069 123 123 123z" fill="#EB8B27"/></g><g filter="url(#filter3_f_1_6547)"><path d="M269 302c58.542 0 106-47.458 106-106S327.542 90 269 90s-106 47.458-106 106 47.458 106 106 106z" fill="#EAAA24"/></g><g filter="url(#filter4_f_1_6547)"><path d="M0 714c58.542 0 106-47.458 106-106S58.542 502 0 502s-106 47.458-106 106S-58.542 714 0 714z" fill="#EAAA24"/></g></g></g><defs><filter id="filter0_f_1_6547" x="-465" y="-506" width="1068" height="1068" filterUnits="userSpaceOnUse" color-interpolation-filters="sRGB"><feFlood flood-opacity="0" result="BackgroundImageFix"/><feBlend in="SourceGraphic" in2="BackgroundImageFix" result="shape"/><feGaussianBlur stdDeviation="208" result="effect1_foregroundBlur_1_6547"/></filter><filter id="filter1_f_1_6547" x="-551" y="-345" width="1218" height="1222" filterUnits="userSpaceOnUse" color-interpolation-filters="sRGB"><feFlood flood-opacity="0" result="BackgroundImageFix"/><feBlend in="SourceGraphic" in2="BackgroundImageFix" result="shape"/><feGaussianBlur stdDeviation="245.5" result="effect1_foregroundBlur_1_6547"/></filter><filter id="filter2_f_1_6547" x="-255" y="2" width="1152" height="1152" filterUnits="userSpaceOnUse" color-interpolation-filters="sRGB"><feFlood flood-opacity="0" result="BackgroundImageFix"/><feBlend in="SourceGraphic" in2="BackgroundImageFix" result="shape"/><feGaussianBlur stdDeviation="226.5" result="effect1_foregroundBlur_1_6547"/></filter><filter id="filter3_f_1_6547" x="-257" y="-330" width="1052" height="1052" filterUnits="userSpaceOnUse" color-interpolation-filters="sRGB"><feFlood flood-opacity="0" result="BackgroundImageFix"/><feBlend in="SourceGraphic" in2="BackgroundImageFix" result="shape"/><feGaussianBlur stdDeviation="210" result="effect1_foregroundBlur_1_6547"/></filter><filter id="filter4_f_1_6547" x="-526" y="82" width="1052" height="1052" filterUnits="userSpaceOnUse" color-interpolation-filters="sRGB"><feFlood flood-opacity="0" result="BackgroundImageFix"/><feBlend in="SourceGraphic" in2="BackgroundImageFix" result="shape"/><feGaussianBlur stdDeviation="210" result="effect1_foregroundBlur_1_6547"/></filter><clipPath id="clip0_1_6547"><path fill="#fff" d="M0 0h375v1004H0z"/></clipPath></defs></svg>