<svg width="461" height="461" fill="none" xmlns="http://www.w3.org/2000/svg"><path d="M230.5 446.165c123.284 0 223.225-57.7 223.225-128.877S353.784 188.411 230.5 188.411c-123.284 0-223.225 57.7-223.225 128.877S107.216 446.165 230.5 446.165z" fill="#F5F5F5"/><path d="M339.914 395.925c31.84 0 57.652-14.902 57.652-33.284 0-18.382-25.812-33.284-57.652-33.284-31.841 0-57.653 14.902-57.653 33.284 0 18.382 25.812 33.284 57.653 33.284zm-139.324 3.034c32.147 0 58.206-15.047 58.206-33.607 0-18.561-26.059-33.607-58.206-33.607-32.146 0-58.206 15.046-58.206 33.607 0 18.56 26.06 33.607 58.206 33.607z" fill="#E0E0E0"/><path d="M412.577 366.956l15.674-9.026c1.383-.803 1.383-2.093 0-2.895L376.748 325.3a5.527 5.527 0 00-5.025 0l-15.628 9.026c-1.392.803-1.392 2.093 0 2.896l51.429 29.734a5.537 5.537 0 005.053 0zm-296.995 3.919l-89.305-51.54 185.304-106.989 89.304 51.54-185.303 106.989z" fill="#E0E0E0"/><path d="M422.737 307.312v42.605a7.527 7.527 0 01-3.356 5.837l-4.02 2.323a7.377 7.377 0 01-4.739.692 6.034 6.034 0 01-1.955-.637.278.278 0 01-.092-.055l-.249-.138-47.289-27.31a11.15 11.15 0 01-5.588-9.672v-40.051a3.196 3.196 0 011.439-2.49l7.901-4.554a3.116 3.116 0 012.859 0l53.651 30.97c.424.263.773.632 1.014 1.069.258.427.403.912.424 1.411z" fill="#7F3A6A"/><path opacity=".2" d="M422.737 307.312v42.605a7.527 7.527 0 01-3.356 5.837l-4.02 2.323a7.377 7.377 0 01-4.739.692 6.034 6.034 0 01-1.955-.637c1.844.858 3.301-.101 3.301-2.277v-41.453a4.441 4.441 0 00-.636-2.148l10.944-6.353c.271.424.429.909.461 1.411z" fill="#000"/><path opacity=".3" d="M411.968 314.402a4.822 4.822 0 00-2.167-3.762l-50.71-29.273c-2.01-1.162-3.688-.212-3.688 2.102v37.507a11.162 11.162 0 005.588 9.672l47.289 27.309c2.001 1.153 3.642.212 3.642-2.102l.046-41.453z" fill="#000"/><path opacity=".6" d="M355.449 294.791a9.218 9.218 0 004.159 7.201l48.202 27.826c2.286 1.328 4.158.24 4.158-2.397v-14.245a2.278 2.278 0 011.143-1.983l7.376-4.25-55.698-33.109-8.196 4.702a2.299 2.299 0 00-1.144 1.983v14.272z" fill="#7F3A6A"/><path d="M364.789 273.834l-8.196 4.702a2.394 2.394 0 00-.867.922l56.565 32.538c.197-.338.48-.618.82-.812l7.376-4.25-55.698-33.1z" fill="#7F3A6A"/><path d="M379.947 310.53l7.496 4.333a4.61 4.61 0 012.102 3.605v1.706c0 1.327-.922 1.844-2.065 1.208l-7.542-4.361a4.618 4.618 0 01-2.084-3.606v-1.678c.009-1.327.94-1.871 2.093-1.207z" fill="#37474F"/><path d="M383.146 281.275v5.928l-3.43 1.982v-9.045c0-.47.332-.654.729-.424l2.701 1.559z" fill="#263238"/><path d="M401.07 287.563v11.064l-2.545 1.475-1.715-.987v-9.054a1.6 1.6 0 00-.728-1.263l-12.973-7.487-2.701-1.558c-.396-.23-.728-.046-.728.424v9.045l-1.66-1.032v-11.166a1.636 1.636 0 01.728-1.125l1.079-.627a1.651 1.651 0 011.466 0l19.095 11.064a1.633 1.633 0 01.682 1.227z" fill="#455A64"/><path d="M398.562 289.038v11.064l-1.715-.987v-9.054a1.613 1.613 0 00-.728-1.263l-12.973-7.487-2.701-1.558c-.397-.23-.729-.046-.729.424v9.045l-1.696-1.032v-11.166c.065-.359.369-.489.728-.276l19.095 11.064a1.62 1.62 0 01.719 1.226z" fill="#37474F"/><path d="M61.396 279.053c.001.331.038.662.11.986.121.559.451 1.05.923 1.374a2.575 2.575 0 002.766-.212 8.3 8.3 0 003.725-6.445 2.672 2.672 0 00-1.06-2.388l-.185-.101a2.302 2.302 0 00-1.605-.065 4.55 4.55 0 00-.921.397 8.288 8.288 0 00-3.753 6.454z" fill="#455A64"/><path d="M62.429 270.967a3.381 3.381 0 011.668-.507c.375-.006.743.096 1.06.295l.102.055 2.425 1.401a2.302 2.302 0 00-1.604-.064c-.321.098-.63.231-.922.396a8.306 8.306 0 00-3.762 6.51c.001.331.038.662.11.986.121.559.451 1.05.923 1.374l-2.499-1.438-.212-.13a.129.129 0 01-.065-.046 2.759 2.759 0 01-.922-2.305 8.294 8.294 0 013.698-6.527z" fill="#263238"/><path d="M102.093 257.173c-.002.332.032.663.101.987.122.558.452 1.05.922 1.374a2.572 2.572 0 002.766-.212 8.302 8.302 0 003.762-6.51 2.667 2.667 0 00-1.051-2.388l-.184-.11a2.362 2.362 0 00-1.605-.056c-.321.098-.63.231-.922.397a8.294 8.294 0 00-3.789 6.518z" fill="#455A64"/><path d="M103.116 249.088a3.397 3.397 0 011.679-.508c.371-.004.736.098 1.051.296l.101.055 2.425 1.392a2.359 2.359 0 00-1.604-.055 4.53 4.53 0 00-.922.396 8.303 8.303 0 00-3.753 6.51c-.002.331.032.662.101.986.122.558.452 1.05.922 1.374l-2.498-1.438-.212-.13h-.065a2.767 2.767 0 01-.922-2.305 8.299 8.299 0 013.697-6.573z" fill="#263238"/><path d="M94.828 287.599c.001.329-.033.657-.102.978a2.281 2.281 0 01-.922 1.383 2.617 2.617 0 01-2.766-.212 8.296 8.296 0 01-3.761-6.519 2.667 2.667 0 011.06-2.379l.184-.11a2.334 2.334 0 011.595-.065c.324.094.634.23.922.406a8.298 8.298 0 013.79 6.518z" fill="#455A64"/><path d="M93.804 279.514a3.427 3.427 0 00-1.678-.508 1.993 1.993 0 00-1.06.295l-.092.047-2.462 1.401a2.34 2.34 0 011.595-.065c.324.094.634.231.922.406a8.297 8.297 0 013.762 6.509c.001.329-.033.657-.102.978a2.281 2.281 0 01-.922 1.383l2.49-1.448.212-.129h.064a2.766 2.766 0 00.922-2.314 8.297 8.297 0 00-3.65-6.555z" fill="#263238"/><path d="M121.243 274.655a5.354 5.354 0 01-.101.986 2.318 2.318 0 01-.922 1.383 2.63 2.63 0 01-2.766-.212 8.292 8.292 0 01-3.762-6.518 2.659 2.659 0 011.06-2.379l.175-.102a2.334 2.334 0 011.595-.064c.324.095.634.232.922.406a8.288 8.288 0 013.799 6.5z" fill="#455A64"/><path d="M120.22 266.569a3.55 3.55 0 00-1.678-.507c-.374-.002-.741.1-1.061.295l-.092.055-2.425 1.401a2.334 2.334 0 011.595-.064c.324.095.633.232.922.406a8.294 8.294 0 013.762 6.5 5.354 5.354 0 01-.101.986 2.318 2.318 0 01-.922 1.383l2.489-1.447.212-.129h.065a2.767 2.767 0 00.922-2.315 8.303 8.303 0 00-3.688-6.564z" fill="#263238"/><path d="M70.192 258.787a4.599 4.599 0 01-.11.986 2.294 2.294 0 01-.923 1.383 2.604 2.604 0 01-2.766-.212 8.287 8.287 0 01-3.697-6.472 2.653 2.653 0 011.06-2.379l.185-.101a2.36 2.36 0 011.604-.065c.323.098.632.234.922.406a8.303 8.303 0 013.725 6.454z" fill="#455A64"/><path d="M69.15 250.701a3.496 3.496 0 00-1.669-.507 2.032 2.032 0 00-1.06.295l-.102.055-2.424 1.402a2.36 2.36 0 011.604-.065c.323.097.632.234.922.406a8.298 8.298 0 013.762 6.5 4.609 4.609 0 01-.111.987 2.3 2.3 0 01-.922 1.383l2.49-1.448.212-.129h.064a2.77 2.77 0 00.922-2.314 8.299 8.299 0 00-3.688-6.565z" fill="#263238"/><path d="M92.643 250.839l13.424-3.854v2.868l-13.424 7.754v-6.768z" fill="#EBEBEB"/><path d="M92.643 250.839l-1.328-.811 13.47-3.679 1.282.636-13.424 3.854z" fill="#F5F5F5"/><path d="M86.834 259.396l-19.04-7.128v-2.904l19.04 1.697v8.335z" fill="#EBEBEB"/><path d="M67.795 249.364l1.401-.369 18.772 1.208-1.134.858-19.04-1.697z" fill="#F5F5F5"/><path d="M86.318 258.483c0 2.157 6.629 2.157 6.629 0v-18.828h-6.63v18.828z" fill="#FAFAFA"/><path d="M91.278 253.55l3.688 23.677h-2.49l-3.448-23.677a3.986 3.986 0 002.25 0z" fill="#F5F5F5"/><path d="M89.028 253.587v6.491l3.412 21.15v-4.001l-3.412-23.64z" fill="#EBEBEB"/><path d="M94.93 277.227h-2.49v4.001h2.49v-4.001z" fill="#E0E0E0"/><path d="M87.894 259.884l-24.543 12.871v-3.964l24.543-15.186v6.279z" fill="#EBEBEB"/><path d="M87.894 253.605a2.82 2.82 0 01-1.576-.719l-24.544 14.863 1.54 1.042 24.58-15.186z" fill="#F5F5F5"/><path d="M63.35 272.755v-3.964l-1.54-1.042v3.845l1.54 1.161z" fill="#E0E0E0"/><path d="M118.846 268.201l-26.222-8.971v-5.892l26.222 10.907v3.956z" fill="#EBEBEB"/><path d="M92.624 253.338c.212-.065.304-.443.323-1.023l26.673 11.608-.774.322-26.222-10.907z" fill="#F5F5F5"/><path d="M119.62 263.922v3.836l-.774.443v-3.956l.774-.323z" fill="#E0E0E0"/><path opacity=".1" d="M94.93 277.227h-2.49v4.001h2.49v-4.001zm-31.58-4.472v-3.964l-1.54-1.042v3.845l1.54 1.161zm56.27-8.833v3.836l-.774.443v-3.956l.774-.323z" fill="#000"/><path d="M95.243 206.851H84.022v38.834c0 3.218 11.22 3.218 11.22 0v-38.834z" fill="#F0F0F0"/><path d="M49.871 201.475l42.965-22.441s3.015-14.697-7.164-30.721c0 0 3.034-28.582-2.056-38.042-3.688-7.247-8.169-6.251-8.169-6.251l-48.801 22.027 23.225 75.428z" fill="#7F3A6A"/><path opacity=".2" d="M49.871 201.475l42.965-22.441s3.015-14.697-7.164-30.721c0 0 3.034-28.582-2.056-38.042-3.688-7.247-8.169-6.251-8.169-6.251l-48.801 22.027 23.225 75.428z" fill="#000"/><path d="M75.447 104.02l-48.801 22.027 1.604 5.209 53.365-24.092c-3.144-3.817-6.168-3.144-6.168-3.144z" fill="#7F3A6A"/><path opacity=".4" d="M75.604 149.687a.925.925 0 001.015.806.922.922 0 00.442-.17 2.316 2.316 0 001.097-2.111c-.102-.757-.756-1.042-1.466-.637a2.33 2.33 0 00-1.088 2.112zm-7.376 4.287a.925.925 0 001.015.806.922.922 0 00.442-.17 2.31 2.31 0 001.097-2.111c-.102-.756-.756-1.042-1.466-.636a2.316 2.316 0 00-1.088 2.111zm-7.478 4.306a.925.925 0 001.015.806.922.922 0 00.442-.17 2.316 2.316 0 001.097-2.111c-.1-.756-.756-1.042-1.465-.637a2.305 2.305 0 00-1.088 2.112zm-7.44 4.296a.92.92 0 001.015.807.923.923 0 00.442-.171 2.313 2.313 0 001.097-2.111c-.101-.756-.756-1.042-1.466-.636a2.305 2.305 0 00-1.088 2.111z" fill="#fff"/><path d="M141.988 197.308v2.37a8.599 8.599 0 01-4.177 6.924l-47.944 25.143a9.566 9.566 0 01-8.298-.166l-27.66-15.951a9.05 9.05 0 01-4.084-7.09v-2.37a8.552 8.552 0 014.186-6.905l45.334-23.687a10.406 10.406 0 018.409-.073l29.919 14.973a8.365 8.365 0 014.315 6.832z" fill="#7F3A6A"/><path opacity=".2" d="M141.988 197.308v2.37a8.599 8.599 0 01-4.177 6.924l-47.944 25.143a9.566 9.566 0 01-8.298-.166l-27.66-15.951a9.05 9.05 0 01-4.084-7.09v-2.37a8.552 8.552 0 014.186-6.905l45.334-23.687a10.406 10.406 0 018.409-.073l29.919 14.973a8.365 8.365 0 014.315 6.832z" fill="#000"/><path opacity=".2" d="M86.779 232.593a9.352 9.352 0 01-5.191-.987l-27.66-15.95a9.05 9.05 0 01-4.085-7.081v-2.379a8.603 8.603 0 013.633-6.537c-1.706 1.217-1.54 2.997.498 4.177l27.66 15.96a8.806 8.806 0 004.223 1.014l.922 11.783z" fill="#000"/><path d="M89.858 219.952l47.944-25.143c2.305-1.207 2.287-3.134 0-4.305l-29.919-14.974a10.389 10.389 0 00-8.408.074L54.057 199.29c-2.314 1.208-2.36 3.246-.102 4.546l27.66 15.95a9.486 9.486 0 008.243.166z" fill="#7F3A6A"/><path d="M89.858 219.952l47.944-25.143c2.305-1.207 2.287-3.134 0-4.305l-29.919-14.974a10.389 10.389 0 00-8.408.074L54.057 199.29c-2.314 1.208-2.36 3.246-.102 4.546l27.66 15.95a9.486 9.486 0 008.243.166z" fill="#7F3A6A"/><path d="M75.447 104.02s7.063-4.785 14.503-.489c7.44 4.297 4.988 18.763 4.195 28.085-.792 9.321-1.023 25.557 5.431 31.467s27.89-1.945 37.212-1.945l-8.215 30.315c-9.073-4.932-23.576-10.003-35.774-12.419 0 0 .397-18.901-8.298-29.698 0 0 3.2-7.56 1.107-22.709-1.872-14.023-4.472-19.334-10.16-22.607z" fill="#7F3A6A"/><path opacity=".35" d="M75.447 104.02s7.063-4.785 14.503-.489c7.44 4.297 4.988 18.763 4.195 28.085-.792 9.321-1.023 25.557 5.431 31.467s27.89-1.945 37.212-1.945l-8.215 30.315c-9.073-4.932-23.576-10.003-35.774-12.419 0 0 .397-18.901-8.298-29.698 0 0 3.2-7.56 1.107-22.709-1.872-14.023-4.472-19.334-10.16-22.607z" fill="#000"/><path d="M128.61 191.453c-.424-2.701-2.148-18.311.765-25.097 2.536-5.91 9.22-6.26 11.258-3.688 2.037 2.573.23 5.597-3.098 9.93-2.766 3.688-3.808 7.081-3.808 15.942l-5.117 2.913z" fill="#7F3A6A"/><path opacity=".2" d="M128.61 191.453c-.424-2.701-2.148-18.311.765-25.097 2.536-5.91 9.22-6.26 11.258-3.688 2.037 2.573.23 5.597-3.098 9.93-2.766 3.688-3.808 7.081-3.808 15.942l-5.117 2.913z" fill="#000"/><path d="M136.834 163.655a2.607 2.607 0 011.844.581c.738.922-.24 2.987-3.162 6.795-3.089 4.038-4.177 7.975-4.315 15.619a.646.646 0 01-.342.581l-.221.11c-.645-6.989-.71-15.914 1.033-19.998a5.656 5.656 0 015.145-3.688m0-.627a6.289 6.289 0 00-5.726 4.066c-1.945 4.555-1.632 14.282-1.079 20.284a.633.633 0 00.344.522.638.638 0 00.624-.024l.203-.111a1.326 1.326 0 00.646-1.115c.138-7.634 1.198-11.35 4.195-15.25 3.254-4.251 4.13-6.38 3.134-7.588a3.146 3.146 0 00-2.341-.802v.018z" fill="#fff" opacity=".5"/><path d="M48.092 214.761l33.192 16.661-.71-12.226 5.117-2.95c-.37-9.478-2.96-19.196-9.672-21.354-8.381-2.655-19.27-3.512-25.816-9.413-6.546-5.901-6.26-22.128-5.468-31.477.793-9.349 3.255-23.779-4.185-28.075-7.441-4.297-14.513.479-14.513.479-3.18 2.065-6.887 3.559-6.574 6.067a2.7 2.7 0 002.268 2.554l18.514 70.072a15.153 15.153 0 007.847 9.662z" fill="#7F3A6A"/><path opacity=".5" d="M48.092 214.761l33.192 16.661-.71-12.226 5.117-2.95c-.37-9.478-2.96-19.196-9.672-21.354-8.381-2.655-19.27-3.512-25.816-9.413-6.546-5.901-6.26-22.128-5.468-31.477.793-9.349 3.255-23.779-4.185-28.075-7.441-4.297-14.513.479-14.513.479-3.18 2.065-6.887 3.559-6.574 6.067a2.7 2.7 0 002.268 2.554l18.514 70.072a15.153 15.153 0 007.847 9.662z" fill="#000"/><path d="M35.672 134.612c2.978 3.568 4.509 9.22 3.965 23.142-.544 13.922-.332 25.134 5.117 31.957 6.454 8.086 28.582 14.53 28.582 14.53l8.648-3.955a10.826 10.826 0 00-5.993-5.348c-8.38-2.655-19.27-3.512-25.816-9.413-6.546-5.901-6.26-22.128-5.467-31.477.793-9.349 3.254-23.779-4.186-28.075-7.44-4.297-14.512.479-14.512.479-3.181 2.066-6.888 3.559-6.574 6.067a2.7 2.7 0 002.268 2.554c4.177-1.383 10.99-4.066 13.968-.461z" fill="#7F3A6A"/><path opacity=".35" d="M35.672 134.612c2.978 3.568 4.509 9.22 3.965 23.142-.544 13.922-.332 25.134 5.117 31.957 6.454 8.086 28.582 14.53 28.582 14.53l8.648-3.955a10.826 10.826 0 00-5.993-5.348c-8.38-2.655-19.27-3.512-25.816-9.413-6.546-5.901-6.26-22.128-5.467-31.477.793-9.349 3.254-23.779-4.186-28.075-7.44-4.297-14.512.479-14.512.479-3.181 2.066-6.888 3.559-6.574 6.067a2.7 2.7 0 002.268 2.554c4.177-1.383 10.99-4.066 13.968-.461z" fill="#000"/><path d="M80.555 219.196l5.117-2.95c0-5.67-1.456-17.998-8.639-20.976-5.698-2.369-8.445 1.107-8.38 3.255.064 2.416 1.843 4.002 4.692 5.67 3.817 2.195 7.21 6.141 7.21 15.001z" fill="#7F3A6A"/><path opacity=".2" d="M80.555 219.196l5.117-2.95c0-5.67-1.456-17.998-8.639-20.976-5.698-2.369-8.445 1.107-8.38 3.255.064 2.416 1.843 4.002 4.692 5.67 3.817 2.195 7.21 6.141 7.21 15.001z" fill="#000"/><path d="M73.483 196.995a6.961 6.961 0 012.591.599c4.74 1.973 6.75 10.142 7.044 17.094a.184.184 0 01-.083.175l-.23.129c-.83-6.03-3.513-10.28-8.206-12.982-3.126-1.798-3.411-2.766-3.43-3.559.046-.298.192-.571.415-.774a2.506 2.506 0 011.9-.682zm0-.627a3.135 3.135 0 00-2.35.866 2.02 2.02 0 00-.6 1.236c0 1.171.692 2.323 3.752 4.084 4.61 2.674 7.248 6.943 7.967 13.037a.287.287 0 00.276.249.25.25 0 00.138 0l.683-.396a.822.822 0 00.405-.747c-.304-7.164-2.424-15.563-7.44-17.647a7.494 7.494 0 00-2.83-.646v-.036z" fill="#fff" opacity=".5"/><path d="M115.822 274.415l-76.757-44.311L212.77 129.808l76.756 44.321-173.704 100.286z" fill="#7F3A6A"/><path opacity=".8" d="M115.822 274.415l-76.757-44.311L212.77 129.808l76.756 44.321-173.704 100.286z" fill="#fff"/><path d="M39.065 230.104v88.622l4.038 2.333v-9.322l68.68 39.646v9.331l4.039 2.333v-88.632l-76.757-44.311z" fill="#7F3A6A"/><path opacity=".6" d="M39.065 230.104v88.622l4.038 2.333v-9.322l68.68 39.646v9.331l4.039 2.333v-88.632l-76.757-44.311z" fill="#fff"/><path d="M43.103 321.059l4.039-2.333v-4.665l-4.039-2.324v9.322z" fill="#7F3A6A"/><path d="M43.103 321.059l4.039-2.333v-4.665l-4.039-2.324v9.322zm72.719 41.988l4.038-2.333v-9.331l165.628-95.629v9.33l4.038-2.332v-88.623L115.822 274.415v88.632z" fill="#7F3A6A"/><path opacity=".7" d="M115.822 363.047l4.038-2.333v-9.331l165.628-95.629v9.33l4.038-2.332v-88.623L115.822 274.415v88.632z" fill="#fff"/><path d="M285.488 265.084l-4.038-2.332v-4.666l4.038-2.332v9.33z" fill="#7F3A6A"/><path d="M175.447 180.592l12.825 7.376a1.901 1.901 0 001.725 0l50.793-29.329c.479-.267.479-.719 0-.995l-12.825-7.376a1.905 1.905 0 00-1.725 0l-50.793 29.319c-.479.286-.479.738 0 1.005zm-49.843 15.895l32.058 18.496a2.011 2.011 0 001.844 0l23.576-13.609a.555.555 0 00.266-.84.561.561 0 00-.266-.202l-32.031-18.495a2.011 2.011 0 00-1.844 0l-23.603 13.627a.558.558 0 00-.343.512.555.555 0 00.343.511z" fill="#000" opacity=".2"/><path d="M125.604 194.819l32.058 18.495a2.011 2.011 0 001.844 0l23.511-13.609a.555.555 0 00.266-.839.557.557 0 00-.266-.203l-32.03-18.495a2.011 2.011 0 00-1.844 0l-23.576 13.609a.553.553 0 00.037 1.042z" fill="#EBEBEB"/><path d="M149.18 180.168l-22.387 12.908 30.869 17.822a1.951 1.951 0 001.844 0l22.386-12.908-30.841-17.813a2.016 2.016 0 00-1.871-.009z" fill="#E0E0E0"/><path d="M125.604 191.564l32.058 18.495a2.011 2.011 0 001.844 0l23.575-13.608a.554.554 0 000-1.042l-32.03-18.496a2.011 2.011 0 00-1.844 0l-23.575 13.609a.557.557 0 00-.382.511.558.558 0 00.354.531z" fill="#FAFAFA"/><path d="M70.773 229.772c3.476 2 3.476 5.255 0 7.256a13.892 13.892 0 01-12.558 0c-3.476-2.001-3.476-5.256 0-7.256a13.88 13.88 0 0112.558 0z" fill="#000" opacity=".2"/><path d="M69.768 233.782c2.766-2.858 4.444-9.994 1.715-12.262H57.579c-2.766 2.268-1.088 9.404 1.706 12.262l.083.083.092.092.258.222.064.055.213.157c.113.086.233.163.36.23a9.22 9.22 0 008.343 0c.124-.07.244-.147.36-.23.074-.046.129-.102.193-.148l.083-.064.25-.222.11-.101.074-.074z" fill="#EBEBEB"/><path d="M58.787 220.607c-3.172 1.844-3.172 4.804 0 6.638a12.724 12.724 0 0011.488 0c3.171-1.844 3.171-4.803 0-6.638a12.67 12.67 0 00-11.488 0z" fill="#FAFAFA"/><path d="M61.036 221.907c-1.936 1.116-1.936 2.923 0 4.038a7.716 7.716 0 006.99 0c1.926-1.115 1.926-2.922 0-4.038a7.716 7.716 0 00-6.99 0z" fill="#EBEBEB"/><path d="M68.025 223.825a7.716 7.716 0 00-6.989 0 3.194 3.194 0 00-1.161 1.06 3.28 3.28 0 001.161 1.06 7.716 7.716 0 006.99 0c.454-.257.84-.621 1.124-1.06a3.163 3.163 0 00-1.125-1.06z" fill="#E0E0E0"/><path d="M65.794 225.318a10.297 10.297 0 004.278-5.412c1.282-3.752.525-8.298-.618-10.142-1.558-2.535-5.338-2.249-4.213 1.983s1.844 8.842 0 11.912l.553 1.659z" fill="#7F3A6A"/><path d="M65.794 225.318a10.297 10.297 0 004.278-5.412c1.282-3.752.525-8.298-.618-10.142-1.558-2.535-5.338-2.249-4.213 1.983s1.844 8.842 0 11.912l.553 1.659z" fill="#000" opacity=".2"/><path d="M65.923 224.553a.19.19 0 01-.12-.046.174.174 0 010-.24 12.337 12.337 0 003.163-9.22 10.493 10.493 0 00-1.761-5.652.173.173 0 01.054-.277.162.162 0 01.065-.013.162.162 0 01.12.051c.572.488 1.688 2.886 1.844 5.891a12.717 12.717 0 01-3.245 9.469.185.185 0 01-.12.037z" fill="#fff"/><path d="M62.548 225.318a1.645 1.645 0 00-.691-.922 6.192 6.192 0 00-1.245-.534c-.747-.277-1.705-.673-1.844-1.577a2.592 2.592 0 01.12-.922c.183-.411.228-.87.13-1.309-.167-.406-.59-.618-.923-.858a3.195 3.195 0 01-1.005-.922 2.008 2.008 0 01-.295-1.161c.074-.839.876-1.393.922-2.232 0-1.207-2.766-2.858-1.29-4.001 1.936-1.466 4.969.23 5.845 1.475.876 1.245.867 1.844 2.452 2.867 1.319.922 2.877 1.061 2.877 2.766 0 1.706-2.222 1.844-.48 3.762 1.052 1.18-.682 2.195-1.309 3.587a2.863 2.863 0 01-3.264-.019z" fill="#7F3A6A"/><path d="M64.3 225.825a.146.146 0 01-.068-.014.164.164 0 01-.098-.17c.378-10.031-4.73-13.563-5.753-13.83a.176.176 0 01-.092-.204.175.175 0 01.184-.128c1.724.47 6.362 4.712 6.002 14.19a.176.176 0 01-.057.112.171.171 0 01-.118.044z" fill="#fff"/><path d="M63.304 218.339a.196.196 0 01-.11-.046c-1.485-1.31-4.38-1.273-4.407-1.273a.173.173 0 01-.136-.17.174.174 0 01.136-.171c.129 0 3.06 0 4.61 1.356a.183.183 0 010 .248.164.164 0 01-.093.056z" fill="#fff"/><path d="M153.522 241.186c.065.111 0 .23-.129.313l-30.232 17.463a.71.71 0 01-.378.083.61.61 0 01-.369-.083l-42.2-24.368a.353.353 0 01-.138-.148.184.184 0 010-.212h.055l30.297-17.564a.782.782 0 01.756 0l42.209 24.368s.074.047.092.083l.037.065z" fill="#000" opacity=".2"/><path d="M81.615 232.455v.728a.8.8 0 00.36.618l40.503 23.382a.767.767 0 00.72 0l29.006-16.744a.785.785 0 00.359-.627v-.728a.786.786 0 00-.359-.627l-40.494-23.382a.816.816 0 00-.72 0l-29.015 16.753a.803.803 0 00-.36.627z" fill="#7F3A6A"/><path opacity=".4" d="M152.25 238.494c.147.11.138.276 0 .378l-29.006 16.752a.753.753 0 01-.36.083v1.531a.922.922 0 00.36-.092l29.006-16.744a.785.785 0 00.359-.627v-.728a.79.79 0 00-.359-.553z" fill="#fff"/><path opacity=".15" d="M81.92 231.865l-.046.046a.787.787 0 00-.185.387v.82a.794.794 0 00.36.618l40.503 23.382c.11.061.234.092.36.092v-1.567a.728.728 0 01-.36-.083l-40.577-23.317a.4.4 0 01-.138-.139.212.212 0 010-.203l.083-.036z" fill="#000"/><path d="M92.587 222.091c0 .655.922 1.337 1.153 1.918a.485.485 0 01.055.148c-.12.414-.507.7-.58.977a.652.652 0 000 .184v.554c.01.126.03.253.054.378a3.027 3.027 0 01-.092.405 2.253 2.253 0 00-.138.683v.534a.5.5 0 00.277.498l1.622.922 12.162-7.016v-.535l-1.623-.922a1.41 1.41 0 00-.821-.157h-.11c-.268 0-.627 0-1.107.074-.613.056-1.23.056-1.844 0h-.47a2.045 2.045 0 00-.332 0 7.949 7.949 0 01-2.84.313 23.615 23.615 0 00-3.31-.673h-.11c-.45.008-.891.128-1.282.351-.443.249-.6.516-.6.793-.073.12-.064.488-.064.571zm1.844.378a.649.649 0 01.286-.285 1.53 1.53 0 01.304-.13 3.15 3.15 0 012.232.332c.275.148.503.372.654.646a.78.78 0 01-.295.276 2.426 2.426 0 01-1.65.129 3.187 3.187 0 01-.922-.331c-.26-.15-.47-.371-.609-.637z" fill="#263238"/><path d="M104.619 220.653h-.11c-.268 0-.627 0-1.107.074-.613.056-1.23.056-1.844 0h-.47a2.045 2.045 0 00-.332 0 7.948 7.948 0 01-2.84.313 23.615 23.615 0 00-3.31-.673h-.11a2.67 2.67 0 00-1.282.351c-1.484.857.203 1.844.553 2.71.35.867-.405 1.254-.525 1.669-.12.415.203.627-.074 1.521-.277.895-.064 1.051.138 1.171l1.623.922 12.161-7.016-1.622-.922a1.397 1.397 0 00-.849-.12zm-9.109 6.832a.772.772 0 01-.673-.055c-.212-.12-.258-.295-.102-.388a.772.772 0 01.674.056c.212.12.258.295.101.387zm2.102-4.177a2.426 2.426 0 01-1.65.129 3.187 3.187 0 01-.922-.331c-.793-.461-.922-1.116-.36-1.466.098-.051.2-.094.304-.13a3.152 3.152 0 012.232.342c.83.461.995 1.115.396 1.456zm7.275-1.235a.76.76 0 01-.343.05.754.754 0 01-.33-.105c-.212-.13-.249-.295-.093-.388a.76.76 0 01.674.056c.202.12.248.295.092.387z" fill="#37474F"/><path d="M121.704 253.08l25.244-14.577a.454.454 0 00.212-.369v-.258a.458.458 0 00-.059-.211.462.462 0 00-.153-.158l-33.358-19.26a.502.502 0 00-.433 0l-25.235 14.549a.448.448 0 00-.212.369v.285a.448.448 0 00.212.369l33.358 19.261a.515.515 0 00.424 0z" fill="#F5F5F5"/><path d="M130.629 242.191l8.722-5.034.314.184-8.713 5.034-.323-.184zm-10.456 6.039l8.713-5.034.314.184-8.713 5.034-.314-.184z" fill="#E0E0E0"/><path d="M147.004 237.516c.064.065.046.148-.046.212l-25.254 14.568a.43.43 0 01-.221.055v.775a.356.356 0 00.221-.046l25.244-14.577a.454.454 0 00.212-.369v-.258a.44.44 0 00-.156-.36z" fill="#FAFAFA"/><path d="M87.885 232.823a.218.218 0 00-.065.065.68.68 0 00-.055.12v.415a.454.454 0 00.212.369l33.358 19.26a.33.33 0 00.212.046v-.774a.406.406 0 01-.212-.056l-33.413-19.223c-.102-.065-.11-.148-.037-.222z" fill="#E0E0E0"/><path d="M123.474 244.33c-.083.092 0 .212.092.304a1.374 1.374 0 01-.092.434.554.554 0 01-.203.295c-.119.064-.285 0-.378-.083-.092-.083-.101 0-.11 0-.009 0 0 .101 0 .156a.333.333 0 01-.139-.092.532.532 0 00-.175-.083h-.101c-.009 0 0 .148 0 .221 0 .074.064.176 0 .259-.065.083-.194 0-.221-.083a1.688 1.688 0 01-.166-.222h-.12c.009.111.009.222 0 .332a1.92 1.92 0 01-.102.461c0 .056-.092.258-.23.249a.2.2 0 01-.092-.03.202.202 0 01-.065-.071v-.138c.079-.231.079-.48 0-.71a.39.39 0 00-.12-.129.15.15 0 00-.11 0 .265.265 0 00-.12.295c0 .092 0 .193.055.285.016.104.041.205.074.305l.055.101a.922.922 0 01-.193.415c-.102.129-.425.378-.683.212a.828.828 0 01-.313-.479v-.148c.127-.124.238-.264.332-.415.058-.129.098-.266.12-.406a1.06 1.06 0 000-.507.195.195 0 00-.049-.08.192.192 0 00-.081-.049.301.301 0 00-.239 0 .452.452 0 00-.212.351 4.274 4.274 0 00-.065.479c-.007.215.018.429.074.636-.14.139-.298.257-.47.351.161-.092.312-.2.451-.323.04.204.147.39.305.525a.445.445 0 00.295.111.837.837 0 00.83-.636h.055a.354.354 0 00.424-.129c.093-.148.15-.315.166-.489v-.258l.074.074a.332.332 0 00.359.083c.111-.056.074-.175.056-.249-.019-.074 0-.111 0-.166v-.065c0-.064.166.166.359.157h.056a.27.27 0 000-.12.51.51 0 00.35.065.443.443 0 00.313-.277c.055-.11.092-.228.111-.35l.194.313c.184.329.336.675.451 1.033l.212.581h.12a8.587 8.587 0 00-.47-1.291 4.85 4.85 0 00-.369-.636l-.12-.194a.542.542 0 00-.092-.286s-.064.056-.083.111zm-3.513 1.733a2.73 2.73 0 010-.461c.005-.121.024-.242.056-.359a.316.316 0 01.258-.24.105.105 0 01.043-.003.097.097 0 01.04.015.092.092 0 01.031.031.787.787 0 01.015.501c-.023.152-.063.3-.12.443a1.588 1.588 0 01-.295.387 1.795 1.795 0 01-.028-.351v.037zm1.319 0l-.055-.267a.308.308 0 010-.286.448.448 0 01.092.268c.013.116.013.234 0 .35v.046l-.037-.111zm5.034-3.476h-.111s0 .065.065.093a.343.343 0 010 .156c.01.095.01.191 0 .286v.185a.243.243 0 01-.111-.047l-.166-.055h-.11a.565.565 0 010 .277s0 .046-.046.046c-.047 0-.093-.046-.111-.055a.44.44 0 00-.157-.093h-.092a.514.514 0 000 .166s.055.157 0 .185c-.055.027-.111-.056-.166-.129a.204.204 0 00-.111-.212h-.101a.365.365 0 00.083.193c.009.086.009.173 0 .258a.683.683 0 01-.24.388.306.306 0 01-.348.163.301.301 0 01-.122-.062.813.813 0 000-.516 1.201 1.201 0 00-.636-.747.084.084 0 00-.083 0c-.092.055-.074.138-.065.203.022.096.056.189.102.276.096.209.213.406.35.59.071.095.155.178.249.249a.795.795 0 01-.101.222h.046a1.12 1.12 0 00.138-.277.466.466 0 00.369 0 .513.513 0 00.332-.396.786.786 0 00.055-.213c.057.046.13.069.203.065.193 0 .138-.203.101-.323a.547.547 0 00.12.083.236.236 0 00.221 0 .165.165 0 00.065-.156.118.118 0 01-.007-.11.118.118 0 01.191-.04.114.114 0 01.031.047.107.107 0 01.006.056c.166 0 .194-.119.203-.193a2.1 2.1 0 00.065-.323v-.055c.096.091.185.19.267.295.113.134.212.279.295.433a.834.834 0 00-.396.194c-.139.129-.314.442.064.498a.45.45 0 00.474-.186.448.448 0 00.07-.165.72.72 0 00-.055-.304c.107-.014.215-.014.323 0 .073 0 .11-.055 0-.064a1.797 1.797 0 00-.388 0 1.225 1.225 0 00-.147-.24 4.394 4.394 0 00-.258-.332l-.203-.203-.102-.074a.353.353 0 00-.055-.037zm-2.056 1.448a2.923 2.923 0 01-.304-.507 2.08 2.08 0 01-.12-.258c0-.056-.046-.139 0-.194.272.144.477.389.571.682.037.155.037.316 0 .471a1.115 1.115 0 01-.156-.194h.009zm2.701.092a.33.33 0 01-.332 0c-.101-.074-.046-.203 0-.286a.63.63 0 01.388-.249.399.399 0 01-.065.535h.009zm4.361-4.011c-.055 0-.064.093-.073.13a2.061 2.061 0 00-.065.331.59.59 0 00-.23-.112.104.104 0 00-.046.011.304.304 0 00-.102.12.321.321 0 00-.332-.12.362.362 0 00-.276.277.902.902 0 000 .147 6.128 6.128 0 01-.148-.387 1.729 1.729 0 00-.313-.645.5.5 0 00-.572-.176.566.566 0 00-.212.203.783.783 0 00-.129.268.722.722 0 000 .147l-.304-.157h-.056l.351.194a1.518 1.518 0 000 .415c.017.15.057.296.119.433a.28.28 0 00.13.12c.03.014.063.02.096.02a.228.228 0 00.097-.02c.221-.157.148-.406.046-.59a.927.927 0 00-.396-.332.797.797 0 01.065-.323.798.798 0 01.193-.267.194.194 0 01.069-.051.205.205 0 01.235.051c.072.06.137.128.194.203.109.174.193.364.249.562.06.193.134.381.221.563v.055a.673.673 0 00.083.507h.12a.701.701 0 00-.074-.507c.007-.135.032-.268.074-.396a.263.263 0 01.147-.176.133.133 0 01.086-.002.135.135 0 01.071.048.65.65 0 01.157.231v.083h.129c-.009 0 0 0 0-.055a.695.695 0 010-.129.23.23 0 01.055-.166c.139.064.185.184.258.267.074.083.148 0 .13 0a.66.66 0 010-.498v-.129a.318.318 0 01.073.129c0 .092.046.184.074.277l.12.285c.092.189.197.37.313.544.13.217.299.408.498.563h.083a5.836 5.836 0 01-.488-.609 4.073 4.073 0 01-.351-.654 2.158 2.158 0 01-.101-.323.375.375 0 00-.035-.136.378.378 0 00-.085-.113.17.17 0 00-.057-.078.173.173 0 00-.091-.033zm-2.24.526a.516.516 0 01.166.544.312.312 0 01-.083.111c-.055 0-.074-.083-.092-.111a1.776 1.776 0 01-.102-.378 2.272 2.272 0 010-.35c.042.058.079.12.111.184zm5.532-1.558a.804.804 0 00-.396 0 2.445 2.445 0 00-.581-.415h-.129c.061.118.102.246.119.378a.355.355 0 010 .194c0 .055-.119 0-.175 0h-.11c-.01 0 0 .129 0 .138 0 .009-.157-.074-.194-.083-.037-.009-.083 0-.083 0s.046.129 0 .175l-.147-.083h-.102a.536.536 0 01.046.129s.056.129 0 .157c-.055.028 0 0-.064 0l-.074-.055a.43.43 0 00-.148-.074h-.083a.836.836 0 000 .212.482.482 0 01-.013.178.109.109 0 01-.042.043c-.147.055-.369-.341-.406-.396-.036-.056-.11 0-.101 0 .051.104.094.212.129.322 0 .111 0 .268-.166.314.221 0 .249-.175.231-.295v-.046c.038.045.086.08.141.102a.36.36 0 00.172.027.189.189 0 00.117-.071.171.171 0 00.028-.063.16.16 0 00.003-.069 2.037 2.037 0 000-.221c.092.064.193.156.322.101.129-.055.074-.092.065-.147a.289.289 0 000-.083h.055a.099.099 0 00.083 0c.092 0 .083-.102.065-.166a.21.21 0 00.101.025c.036 0 .07-.008.102-.025a.09.09 0 00.037-.015.09.09 0 00.04-.066.087.087 0 00-.004-.039c.072.023.15.023.222 0a.186.186 0 00.092-.185.77.77 0 00-.074-.184l.157.111c.093.058.176.129.249.212a.332.332 0 00-.111.064c-.092.074-.111.221.101.24.213.018.249-.12.222-.203a.256.256 0 00-.056-.092.655.655 0 01.305 0c.055.018.147-.037.055-.046zm-.433.267a.052.052 0 01-.017.039.052.052 0 01-.039.017.056.056 0 01-.039-.017.055.055 0 01-.016-.039c0-.055 0-.101.083-.138a.139.139 0 01.028.138zm.507-2.849c.055.185.129.369.175.553.046.185.083.378.111.572.027.194 0 .378.064.572-.101-.12-.184-.249-.304-.369a1.84 1.84 0 00-.461-.332.592.592 0 00-.47 0 .405.405 0 00-.166.129h-.203a.54.54 0 01-.212 0h-.056c.028 0 .296.046.425.065a.679.679 0 00-.083.166.458.458 0 00.055.378.48.48 0 00.35.166.307.307 0 00.314-.24c0-.148-.102-.314-.295-.415a.913.913 0 00-.194-.074.255.255 0 01.111-.083.366.366 0 01.396 0c.145.088.278.193.397.314.115.128.223.264.322.405l.102.139c0 .073 0 .147.092.193.092.046.111 0 .111 0a.316.316 0 00-.074-.212c0-.101 0-.193-.055-.295-.056-.101 0-.369-.056-.553a2.407 2.407 0 00-.322-1.07s-.083-.036-.074-.009zm-.618 1.42a.22.22 0 01.044.086.226.226 0 01-.099.255.25.25 0 01-.323-.101.427.427 0 01-.055-.314.546.546 0 01.083-.184.661.661 0 01.35.258zm4.601-1.042a3.59 3.59 0 00-.756-.922h-.129c.009 0 .156.314.138.47a.19.19 0 01-.055.13.648.648 0 01-.139.064.12.12 0 00-.064.092l-.157-.101h-.12a.708.708 0 000 .184v.157a1.304 1.304 0 01-.258-.24.101.101 0 00-.129 0v.249c.004.052.004.105 0 .157v.101l-.055-.046a.437.437 0 01-.083-.147.675.675 0 01-.074-.268h-.129c.014.243.014.486 0 .729a.706.706 0 01-.148.359.627.627 0 01-.156.148.769.769 0 01-.277.12c-.092 0-.111-.083-.12-.12l-.055-.212v-.12a.666.666 0 00.304-.701c0-.064-.064-.221-.24-.166a.144.144 0 00-.06.044.15.15 0 00-.032.067.439.439 0 000 .184c0 .157-.055.305-.064.461v.111l-.102.074h.083v.101c.016.079.041.157.074.231.083.147.323.092.479 0a.869.869 0 00.378-.342c.081-.175.112-.37.093-.562l.064.055a.244.244 0 00.138.042c.05 0 .098-.014.139-.042.083-.064.055-.166.055-.239v-.129a.947.947 0 00.203.147h.092a.152.152 0 00.088-.067.152.152 0 00.023-.108.914.914 0 000-.148.408.408 0 00.166.093h.11v-.129c0-.037.102 0 .139-.065a.21.21 0 00.11-.203.637.637 0 00-.064-.249c.164.178.309.373.433.581l.111.166a.824.824 0 00-.406.295.537.537 0 00-.12.277.362.362 0 00.102.322.56.56 0 00.497.074.443.443 0 00.305-.276.809.809 0 00-.212-.655h.147c.056 0 .083 0 0-.046a.856.856 0 00-.267.018zm-2.766.406v-.415a.143.143 0 010 .065.663.663 0 010 .331.64.64 0 01-.185.296c.046-.098.101-.191.166-.277h.019zm2.886 0c.037.095.037.2 0 .295a.375.375 0 01-.444.197.29.29 0 01-.096-.059.27.27 0 01-.087-.203.334.334 0 010-.212.642.642 0 01.396-.378c.093.119.165.254.212.397l.019-.037z" fill="#37474F"/><path d="M115.739 222.663l.295.166a.177.177 0 01.119.166.177.177 0 01-.119.166l-20.284 11.7a.65.65 0 01-.581 0l-.286-.166c-.166-.092-.166-.24 0-.332l20.284-11.7a.646.646 0 01.572 0zm1.77 1.023l.295.166a.172.172 0 01.086.064.172.172 0 010 .204.167.167 0 01-.086.064l-20.284 11.7a.638.638 0 01-.58 0l-.287-.165c-.166-.093-.166-.24 0-.332l20.284-11.701a.635.635 0 01.572 0zm1.761 1.015l.295.166a.173.173 0 01.119.166.172.172 0 01-.119.165l-20.284 11.71a.71.71 0 01-.58 0l-.287-.175c-.166-.092-.166-.24 0-.332l20.284-11.7a.622.622 0 01.572 0zm3.9 2.249l.295.175a.178.178 0 01.119.166.173.173 0 01-.119.166l-20.284 11.701a.628.628 0 01-.572 0l-.295-.176c-.166-.092-.166-.239 0-.332l20.284-11.7a.635.635 0 01.572 0zm1.77 1.024l.295.175a.18.18 0 01.087.064.176.176 0 01-.087.268l-20.284 11.7a.628.628 0 01-.571 0l-.295-.175c-.166-.092-.166-.24 0-.332l20.284-11.7a.615.615 0 01.571 0zm1.761 1.014l.295.175a.18.18 0 01.087.064.176.176 0 01-.087.268l-20.284 11.7a.628.628 0 01-.571 0l-.295-.166a.177.177 0 01-.136-.17.177.177 0 01.136-.171l20.284-11.7a.627.627 0 01.571 0zm3.9 2.259l.295.166a.173.173 0 01.119.166.179.179 0 01-.032.102.18.18 0 01-.087.064l-20.256 11.663a.628.628 0 01-.572 0l-.295-.166a.177.177 0 01-.119-.166.177.177 0 01.119-.166l20.284-11.7a.615.615 0 01.544.037zm1.771 1.023l.295.166a.181.181 0 01.086.064.175.175 0 01-.086.268l-20.284 11.7a.622.622 0 01-.572 0l-.249-.138a.172.172 0 01-.086-.064.17.17 0 01-.033-.102.17.17 0 01.033-.102.172.172 0 01.086-.064l20.284-11.7a.62.62 0 01.526-.028zm1.761.996l.295.166a.177.177 0 01.119.166.177.177 0 01-.119.166l-20.284 11.7a.635.635 0 01-.572 0l-.295-.166a.172.172 0 01-.086-.064.172.172 0 010-.204.172.172 0 01.086-.064l20.284-11.7a.628.628 0 01.572 0z" fill="#E0E0E0"/><path d="M96.478 229.301v.544c.005.273.103.537.277.747l14.881-8.584v-.544a3.267 3.267 0 00-1.457-.359 2.397 2.397 0 00-.987.203c-1.078.488-1.392.645-2.056.922a1.09 1.09 0 01-1.014-.148l-.442-.406-1.208-1.115a.734.734 0 00-.572-.185h-.286a3.996 3.996 0 01-1.235 0 2.659 2.659 0 01-1.337-.507 3.115 3.115 0 00-2.075-.737h-.064c-.475 0-.943.114-1.365.332a1.96 1.96 0 00-.886 1.404 1.969 1.969 0 00.5 1.583c.175.171.29.394.331.636a1.49 1.49 0 01-.286.692.551.551 0 00-.166.359v.544a.343.343 0 00.139.268l1.392 1.281.442.406.046.055a.673.673 0 01-.101.138l-1.844 1.411a1.54 1.54 0 00-.627 1.06zm3.974-8.15a1.013 1.013 0 01-.516.544 2.045 2.045 0 01-1.568.092 1.577 1.577 0 01-.59-.341.995.995 0 01-.286-.415c.097-.246.285-.444.526-.553l.203-.092a2.032 2.032 0 011.945.341c.147.109.262.255.332.424h-.046z" fill="#37474F"/><path d="M110.188 221.105a2.39 2.39 0 00-.986.203c-1.079.488-1.393.645-2.056.922a1.095 1.095 0 01-1.015-.148l-.442-.406-1.208-1.115a.725.725 0 00-.572-.185h-.285c-.41.064-.827.064-1.236 0a2.666 2.666 0 01-1.337-.507 3.115 3.115 0 00-2.074-.737h-.065a2.97 2.97 0 00-1.364.332 1.425 1.425 0 00-.916 1.112 1.42 1.42 0 00.528 1.34 1.477 1.477 0 010 1.844c-.35.406 0 .636 0 .636l1.393 1.273.442.405c.332.314-.055.738-.055.738l-1.844 1.411c-.775.7-.738 1.263-.332 1.844l14.881-8.584a3.264 3.264 0 00-1.457-.378zm-10.022-.922a.925.925 0 01.281.812.923.923 0 01-.511.691 2.065 2.065 0 01-1.568.092 1.577 1.577 0 01-.59-.341.866.866 0 01.24-1.503.799.799 0 01.203-.092 2.016 2.016 0 011.945.35v-.009z" fill="#455A64"/><path opacity=".2" d="M132.279 222.313l22.027 12.732 3.762.766a.128.128 0 00.067-.006.113.113 0 00.053-.041.11.11 0 00.023-.063.113.113 0 00-.014-.065l-1.18-2.158-22.036-12.733c-.738-.387-3.292 1.236-2.702 1.568z" fill="#000"/><path d="M134.704 218.615h.102l-.194-.101h-.23a.924.924 0 00-.452.138 2.237 2.237 0 00-1.005 1.743c-.01.086-.01.172 0 .258v.065c.016.057.044.11.083.156l.239.139a.448.448 0 01-.11-.083.831.831 0 00.581-.12 2.233 2.233 0 001.014-1.752.866.866 0 00-.028-.443z" fill="#7F3A6A"/><path d="M155.818 230.804l-1.392 2.462-.24-.138-20.782-11.986a.448.448 0 01-.11-.083.83.83 0 01-.185-.572 2.23 2.23 0 011.014-1.743.928.928 0 01.452-.138h.231l21.012 12.198z" fill="#F0F0F0"/><path d="M155.136 230.878c.562-.323 1.014-.065 1.014.581a2.232 2.232 0 01-1.014 1.752c-.553.322-1.005.055-1.005-.59a2.236 2.236 0 011.005-1.743z" fill="#7F3A6A"/><path d="M157.312 232.344l-1.291-1.411a.659.659 0 00-.812 0c-.291.192-.534.45-.709.752a2.247 2.247 0 00-.295.991.67.67 0 00.387.701h.074l1.844.415a.507.507 0 00.322-.074 1.288 1.288 0 00.572-.996.46.46 0 00-.092-.378z" fill="#E0E0E0"/><path d="M140.808 223.189a.236.236 0 00-.231 0 .761.761 0 00-.359.617.271.271 0 00.083.222l15.342 8.86 1.014-.581-15.849-9.118z" fill="#455A64"/><path d="M154.223 232.095l1.42.821 1.014-.581-1.936-1.116a2.441 2.441 0 00-.498.876z" fill="#37474F"/><path d="M157.819 233.054l-1.171-1.282a.465.465 0 00-.581 0 1.584 1.584 0 00-.71 1.236.486.486 0 00.267.489h.046l1.715.368c.06.02.125.02.185 0a.74.74 0 00.323-.562.26.26 0 00-.074-.249z" fill="#7F3A6A"/><path opacity=".1" d="M157.819 233.054l-1.171-1.282a.465.465 0 00-.581 0 1.584 1.584 0 00-.71 1.236.486.486 0 00.267.489h.046l1.715.368c.06.02.125.02.185 0a.74.74 0 00.323-.562.26.26 0 00-.074-.249z" fill="#000"/><path d="M157.883 233.266a.742.742 0 01-.322.562.293.293 0 01-.185 0l-.866-.184a.34.34 0 01-.231-.369 1.16 1.16 0 01.516-.922.353.353 0 01.424 0l.581.636c.04.033.069.077.084.126a.251.251 0 01-.001.151z" fill="#7F3A6A"/><path opacity=".1" d="M157.789 233.529c.127-.221.127-.459-.001-.533-.128-.074-.335.045-.462.265-.127.221-.127.459.001.533.128.074.335-.045.462-.265z" fill="#000"/><path d="M136.991 220.976a.266.266 0 00-.258 0 .78.78 0 00-.351.617.24.24 0 00.102.231l3.78 2.185a.273.273 0 01-.083-.221.761.761 0 01.359-.618.246.246 0 01.231 0l-3.78-2.194z" fill="#FAFAFA"/><path d="M137.092 221.206a.761.761 0 01-.359.618.233.233 0 01-.249 0 .236.236 0 01-.084-.101c-.018-.041-.024-.085-.018-.13a.78.78 0 01.351-.617.263.263 0 01.258 0 .249.249 0 01.101.23z" fill="#F5F5F5"/><path d="M136.299 219.685l-1.493-.858a.656.656 0 00-.618.074 2.009 2.009 0 00-.922 1.577.631.631 0 00.267.59l1.512.867a.635.635 0 00.627-.065 2.033 2.033 0 00.922-1.577.647.647 0 00-.295-.608z" fill="#7F3A6A"/><path opacity=".05" d="M136.299 219.685l-1.493-.858a.656.656 0 00-.618.074 2.009 2.009 0 00-.922 1.577.631.631 0 00.267.59l1.512.867a.635.635 0 00.627-.065 2.033 2.033 0 00.922-1.577.647.647 0 00-.295-.608z" fill="#000"/><path opacity=".1" d="M135.635 219.731c.498-.286.922-.055.922.526a2.034 2.034 0 01-.922 1.576c-.497.286-.922.055-.922-.525a2.048 2.048 0 01.922-1.577z" fill="#000"/><path d="M158.298 233.589l-.636-.323a.108.108 0 00-.12 0 .372.372 0 00-.166.286.13.13 0 000 .11l.609.369c.039.01.08.01.12 0a.24.24 0 00.239-.239.241.241 0 00-.001-.107.242.242 0 00-.045-.096z" fill="#455A64"/><path d="M158.326 233.616a.163.163 0 00-.111 0 .375.375 0 00-.166.286.136.136 0 00.046.111h.074a.238.238 0 00.132-.045.239.239 0 00.025-.37v.018z" fill="#263238"/><path opacity=".2" d="M210.907 206.399l51.181-29.55a2.226 2.226 0 012.019 0l1.779 1.023a.618.618 0 010 1.171l-51.18 29.55a2.229 2.229 0 01-2.019 0l-1.78-1.032a.618.618 0 010-1.162z" fill="#000"/><path d="M177.024 178.149v-.351a1.844 1.844 0 01.867-1.484l50.765-29.329a1.898 1.898 0 011.724 0l10.391 6.002a1.905 1.905 0 01.867 1.494v.341a1.905 1.905 0 01-.867 1.494l-50.793 29.319a1.898 1.898 0 01-1.724 0l-10.391-6.002a1.84 1.84 0 01-.839-1.484z" fill="#7F3A6A"/><path d="M177.024 178.149v-.351a1.844 1.844 0 01.867-1.484l50.765-29.329a1.898 1.898 0 011.724 0l10.391 6.002a1.905 1.905 0 01.867 1.494v.341a1.905 1.905 0 01-.867 1.494l-50.793 29.319a1.898 1.898 0 01-1.724 0l-10.391-6.002a1.84 1.84 0 01-.839-1.484z" fill="#000" opacity=".5"/><path d="M177.881 177.31l10.391 6.002a1.927 1.927 0 001.725 0l50.793-29.338a.524.524 0 00.258-.804.52.52 0 00-.258-.192l-10.391-6.002a1.901 1.901 0 00-1.725 0l-50.793 29.329c-.479.276-.479.719 0 1.005z" fill="#7F3A6A"/><path d="M177.881 177.31l10.391 6.002a1.927 1.927 0 001.725 0l50.793-29.338a.524.524 0 00.258-.804.52.52 0 00-.258-.192l-10.391-6.002a1.901 1.901 0 00-1.725 0l-50.793 29.329c-.479.276-.479.719 0 1.005z" fill="#000" opacity=".2"/><path d="M261.931 165.038l3.605-44.053a4.152 4.152 0 00-1.844-3.688 4.613 4.613 0 00-4.177.074l-48.276 27.872a5.345 5.345 0 00-2.36 3.688l-3.633 44.08a4.153 4.153 0 001.844 3.688 4.606 4.606 0 004.177-.083l48.276-27.862a5.371 5.371 0 002.388-3.716z" fill="#7F3A6A"/><path opacity=".5" d="M261.931 165.038l3.605-44.053a4.152 4.152 0 00-1.844-3.688 4.613 4.613 0 00-4.177.074l-48.276 27.872a5.345 5.345 0 00-2.36 3.688l-3.633 44.08a4.153 4.153 0 001.844 3.688 4.606 4.606 0 004.177-.083l48.276-27.862a5.371 5.371 0 002.388-3.716z" fill="#000"/><path d="M261.931 165.038l3.605-44.053a4.152 4.152 0 00-1.844-3.688 4.613 4.613 0 00-4.177.074l-48.276 27.872c-.638.4-1.174.943-1.567 1.585l7.505 4.334v42.034l42.338-24.442a5.377 5.377 0 002.416-3.716z" fill="#7F3A6A"/><path opacity=".2" d="M261.931 165.038l3.605-44.053a4.152 4.152 0 00-1.844-3.688 4.613 4.613 0 00-4.177.074l-48.276 27.872c-.638.4-1.174.943-1.567 1.585l7.505 4.334v42.034l42.338-24.442a5.377 5.377 0 002.416-3.716z" fill="#000"/><path d="M209.349 195.464l3.633-44.127a5.33 5.33 0 012.36-3.688l48.267-27.863c1.199-.691 2.065-.138 1.955 1.236l-3.633 44.016a5.366 5.366 0 01-2.36 3.688l-48.276 27.863c-1.19.719-2.066.203-1.946-1.125z" fill="#7F3A6A"/><path opacity=".35" d="M209.349 195.464l3.633-44.127a5.33 5.33 0 012.36-3.688l48.267-27.863c1.199-.691 2.065-.138 1.955 1.236l-3.633 44.016a5.366 5.366 0 01-2.36 3.688l-48.276 27.863c-1.19.719-2.066.203-1.946-1.125z" fill="#000"/><path d="M234.262 160.05a8.356 8.356 0 013.531-5.938c1.761-1.023 3.043 0 2.858 2.241a8.367 8.367 0 01-3.531 5.937c-1.77 1.024-3.043-.018-2.858-2.24zm1.134 13.332l11.866-6.896-2.019-1.171-11.866 6.896 2.019 1.171z" fill="#7F3A6A"/><path d="M235.396 173.382l11.866-6.896-2.019-1.171-11.866 6.896 2.019 1.171z" fill="#000" opacity=".2"/><path d="M252.766 186.714l-14.447 8.354a1.846 1.846 0 01-.922.202 1.832 1.832 0 01-.793-.193l-6.362-3.688a1.84 1.84 0 01-.83-1.475v-.342c0-.544.378-.774.858-.497l3.844 2.212.858.498-.194-.977-1.355-18.569 2.019 1.162 11.866-6.897 6.187 18.763a1.51 1.51 0 01-.729 1.447z" fill="#7F3A6A"/><path d="M252.766 186.714l-14.447 8.354a1.846 1.846 0 01-.922.202 1.832 1.832 0 01-.793-.193l-6.362-3.688a1.84 1.84 0 01-.83-1.475v-.342c0-.544.378-.774.858-.497l3.844 2.212.858.498-.194-.977-1.355-18.569 2.019 1.162 11.866-6.897 6.187 18.763a1.51 1.51 0 01-.729 1.447z" fill="#000" opacity=".45"/><path d="M229.633 188.992l4.924-2.849 1.005 6.629-5.929-3.78z" fill="#7F3A6A"/><path opacity=".5" d="M229.633 188.992l4.924-2.849 1.005 6.629-5.929-3.78z" fill="#000"/><path d="M235.396 173.382l-2.019-1.162 1.355 18.569c.111.544-.194.756-.664.48l-3.845-2.213c-.479-.277-.857-.046-.857.498v.378a1.84 1.84 0 00.83 1.475l6.362 3.688c.246.123.517.189.792.194l-1.954-21.907z" fill="#7F3A6A"/><path d="M235.396 173.382l-2.019-1.162 1.355 18.569c.111.544-.194.756-.664.48l-3.845-2.213c-.479-.277-.857-.046-.857.498v.378a1.84 1.84 0 00.83 1.475l6.362 3.688c.246.123.517.189.792.194l-1.954-21.907z" fill="#000" opacity=".65"/><path d="M215.103 206.288c-4.149-9.865-11.147-27.346-11.572-30.693-.645-5.062 0-31.201.821-39.96s3.393-12.908 9.036-14.853a12.657 12.657 0 017.569 7.551c2.066 5.873.858 14.042.858 14.042l-2.545 33.192 6.5 24.618a11.807 11.807 0 003.937 6.159 41.724 41.724 0 014.085 3.411c1.899 2.093 2.959 4.112 4.969 5.919 2.01 1.807 1.355 2.13 0 2.674s-3.688-.793-5.532-2.572a24.513 24.513 0 00-1.659-1.402 38.884 38.884 0 006.251 12.115c2.342 2.849 3.015 5.293-.369 6.353-4.241 1.328-8.602 1.328-12.235-1.272-3.633-2.601-5.532-7.782-6.786-12.051-1.254-4.269-1.531-9.137-3.328-13.231z" fill="#FFA8A7"/><path d="M219.989 175.484l.489-9.386s2.766-29.356 2.766-35.036c0-6.371-1.743-9.22-4.085-10.326-2.341-1.106-4.656-1.577-9.948-2.453-7.238 4.527-6.85 25.401-7.072 37.95-.221 12.548-.774 18.809 1.107 22.736 1.881 3.928 11.838 27.273 11.838 27.273a17.985 17.985 0 0010.889-5.375l-5.984-25.383z" fill="#37474F"/><path d="M167.776 361.535h11.313l2.259-20.035h-13.572v20.035zm37.378-20.598l12.051.397-.212-20.745-13.637-.259 1.798 20.607z" fill="#FFA8A7"/><path d="M167.896 197.732c-.221 10.981-2.545 86.456-2.545 86.456a161.347 161.347 0 00-1.438 17.905c-.304 14.513 2.766 48.986 2.766 48.986.673 3.135 12.373 4.407 13.922 1.577 0 0 6.399-50 8.215-64.365 1.577-12.548 6.454-52.093 6.454-52.093l4.371 38.807a125.77 125.77 0 00.313 14.107c.47 6.647 3.808 45.869 3.808 45.869.055 2.443 12.226 4.463 14.273.858 0 0 3.854-57.247 3.964-63.351.138-6.952-.83-75.54-.83-75.54l-53.273.784z" fill="#37474F"/><path d="M179.735 355.781l.193-1.705c.627 0 .922.7 1.153 2.203a32.746 32.746 0 003.006 9.22c1.927 3.956 3.042 5.597 6.832 10.363.922 1.125 2.922 2.923 3.632 4.186.71 1.264.922 4.758-.249 5.532-4.416 2.942-11.128 3.025-15.867 1.632a9.097 9.097 0 01-6.897-7.735c-.765-4.324-1.171-6.998-3.374-10.262-.803-1.199-2.112-2.167-2.656-3.504-.986-2.406-.193-5.108.434-7.505.544-2.065 1.124-4.342 1.844-4.149v1.273c.848.922 3.826 1.844 6.454 1.982 1.724.092 5.55-.221 5.495-1.531zm37.442-17.72c.295.202.977.986 2.194 2.111a42.144 42.144 0 003.901 3.015 71.366 71.366 0 008.685 5.449c3.586 1.973 6.823 3.172 11.064 5.108.448.181.856.451 1.198.793.261.306.439.674.517 1.069a4.445 4.445 0 01-1.789 4.287 11.916 11.916 0 01-4.481 1.909 23.051 23.051 0 01-11.175.332 31.671 31.671 0 01-8.98-4.149 20.278 20.278 0 00-7.68-3.301c-2.407-.35-5.375-.23-7.459-1.669-2.324-1.595-1.392-5.015-.738-7.947.719-3.209.876-8.095 2.333-7.985l.111 1.273c.129 1.392 3.485 2.019 6.076 2.028 2.148 0 6.205-.562 6.195-1.577l.028-.746z" fill="#263238"/><path opacity=".3" d="M196.829 219.353a36.78 36.78 0 0012.354-7.929s-1.973 5.753-10.059 10.483l.535 50.148-4.075-35.857 1.245-16.845z" fill="#000"/><path d="M186.133 117.583c-2.056.488-8.565 2.24-13.83 4.112a14.756 14.756 0 00-6.666 5.098c-3.844 5.615-.378 18.062 2.444 41.49a2765.32 2765.32 0 01-.646 31.201c6.961 5.071 39.462 8.519 54.122-2.185 0 0 .488-54.076-.48-61.47-1.844-14.143-7.376-17.933-18.836-18.597l-16.108.351z" fill="#263238"/><path d="M206.104 134.188c1.033 3.54 6.786 26.913 6.362 35.709-.323 6.878-2.905 10.225-4.288 11.691-1.383 1.466-3.771 2.24-5.301-.175a20.049 20.049 0 01-3.181-8.658c-.479-4.702 2.111-20.966 1.392-37.71a3.594 3.594 0 015.016-.857z" fill="#7F3A6A"/><path d="M206.334 126.203c2.407 2.066-.23 7.985-.23 7.985a6.841 6.841 0 00-5.016.857s-4.803-2.047-4.813-5.605c0-3.237 3.439-2.195 5.883-2.619 2.591-.452 3.891-2.351 4.176-.618z" fill="#7F3A6A"/><path opacity=".2" d="M206.104 134.188c-.397-1.383-2.287-1.254-3.79-1.734a4.054 4.054 0 01-2.037-1.751c-.775-1.337 0-3.568 1.088-3.799-2.333.166-5.099-.36-5.09 2.536 0 3.558 4.813 5.605 4.813 5.605a6.841 6.841 0 015.016-.857z" fill="#000"/><path d="M189.563 84.686a14.808 14.808 0 1029.606-.728 14.808 14.808 0 00-29.606.728zm-10.538 10.778s2.664 11.221 3.688 13.046a5.108 5.108 0 003.005 2.305l-.396-7.92-6.297-7.431z" fill="#263238"/><path d="M181.634 79.292a5.529 5.529 0 00-4.61 1.724c-1.927 2.075-.673 8.363 1.936 14.494l4.536.415-1.862-16.633z" fill="#263238"/><path d="M184.916 95.888c-.922.562-2.231-1.153-3.374-2.296-1.143-1.143-4.831-2.646-6.565 1.227-1.733 3.872 1.844 9.035 4.721 9.865 4.988 1.438 5.652-1.752 5.652-1.752l.848 20.21c3.531 4.306 11.064 3.135 15.167 2.296 3.291-.664 4.14-1.586.922-5.163l-.148-5.79c2.216.299 4.456.361 6.685.184 3.623-.654 5.854-3.577 6.85-7.542 1.522-6.067 1.9-12.825.378-23.907-1.844-13.618-17.85-13.37-26.286-7.773-8.436 5.597-4.85 20.441-4.85 20.441z" fill="#FFA8A7"/><path d="M184.944 97.372c-.452 0-2.25-2.766-3.402-3.817-1.604-1.355.092-14.263.092-14.263a6.263 6.263 0 01.922-6.98c2.093-2.406 5.006-5.356 14.752-4.434 6.943.645 14.531 2.627 20.551-.507a10.372 10.372 0 01-3.346 11.064s-2.167 1.465-7.948 2.314c-5.781.848-14.835.221-16.071.083-1.687-.194-2.01 1.447-2.812 5.919-.7 3.918-1.198 10.557-2.738 10.621z" fill="#263238"/><path d="M181.68 80.214l-5.578-2.766a3.033 3.033 0 014.121-1.475 3.275 3.275 0 011.457 4.241z" fill="#263238"/><path d="M202.102 114.448s-8.169-1.448-11.064-2.886a9.477 9.477 0 01-4.02-3.789 12.808 12.808 0 002.342 4.527c2.149 2.609 12.779 4.471 12.779 4.471l-.037-2.323z" fill="#F28F8F"/><path d="M201.42 94.523a1.631 1.631 0 11-1.54-1.779 1.667 1.667 0 011.54 1.78zm-1.152-4.84l-3.578 1.742a2.094 2.094 0 01.922-2.766 1.947 1.947 0 012.656 1.024z" fill="#263238"/><path d="M200.304 104.822l5.081 1.392a2.608 2.608 0 01-1.18 1.643 2.61 2.61 0 01-2.001.294 2.77 2.77 0 01-1.9-3.329z" fill="#F28F8F"/><path d="M214.872 90.245l-3.789-1.3a1.918 1.918 0 01.962-1.178 1.929 1.929 0 011.518-.112 2.1 2.1 0 011.309 2.59zm-.387 3.615a1.632 1.632 0 11-1.78-1.54 1.649 1.649 0 011.78 1.54z" fill="#263238"/><path d="M206.676 93.067l.59 9.791 5.107-1.77-5.697-8.021z" fill="#F28F8F"/><path d="M201.365 125.392c-4.518-.922-14.411-3.688-15.444-8.943l-.138-2.868c-1.752 0-2.554 1.964-3.421 4.767-.359 7.376 7.432 14.125 15.259 15.941 0 0-.202-3.835 1.125-5.836a13.551 13.551 0 012.619-3.061z" fill="#37474F"/><path d="M202.121 115.25a7.731 7.731 0 013.153 1.844c5.864 6.067 2.517 14.014 2.517 14.014s-.258-3.476-1.964-4.61a8.547 8.547 0 00-4.462-1.106c1.438-1.531 1.659-2.766.922-5.163l-.166-4.979z" fill="#37474F"/><path d="M309.737 136.456c-3.485 10.142-7.837 27.89-7.837 27.89l-32.575 13.121.922 4.278-7.735-3.181-3.826 3.992s4.232 9.893 9.874 8.63a37.158 37.158 0 003.956-.996c1.779-.627 3.162-1.411 4.545-1.955 2.047-.792 4.131-1.438 6.85-2.249 10.65-3.172 21.962-6.141 25.291-7.155 5.108-1.567 5.172-2.637 7.293-8.492 3.052-8.445 8.971-28.351 8.971-28.351v-18.744c-6.731.073-11.986 2.259-15.729 13.212z" fill="#B16668"/><path d="M369.049 341.048a91.888 91.888 0 011.696 9.312c.452 3.513.729 6.113 1.752 12.124.922 5.477 1.641 9.663-2.231 13.775-3.402 3.623-9.404 5.016-11.378.922-2.258-4.702-1.963-12.346-1.659-17.103.304-4.758.24-6.15.276-9.939 0-3.338.194-4.703.379-7.579 3.66-.24 7.514-1.226 11.165-1.512z" fill="#37474F"/><path d="M328.592 358.769l-1.254-.185c-.083-3.946.147-7.542-.83-9.404l1.789-4.831.295 14.42z" fill="#263238"/><path d="M331.68 340.826c-.286 2.702-1.844 5.468-1.927 10.788a46.274 46.274 0 00.139 6.804l-1.3.351-.295-14.42 3.383-3.523z" fill="#263238"/><path d="M301.955 362.392s.055 1.577.738 2.093c.682.516 2.111 2.074 9.044 1.669 6.934-.406 9.368-2.121 11.737-4.287 2.37-2.167 2.988-7.837 3.347-10.521.683-5.19 2.84-7.91 4.859-10.52a4.604 4.604 0 00.203-2.692s-5.735-.322-8.215 6.03c-2.48 6.353-4.426 13.719-10.031 15.48a96.873 96.873 0 01-11.682 2.748z" fill="#263238"/><path d="M369.049 341.048c0-4.481 0-10.428.415-18.311.47-9.22.535-16.347.498-26.074 0-7.376-.415-13.886-3.024-28.001 2.766-28.352 3.771-57.653.424-68.422-2.868-9.22-5.8-12.327-8.381-16.854-1.346-2.342-3.808-5.818-3.808-8.953a57.922 57.922 0 01-20.487 3.983c-13.148.12-17.739-3.448-17.739-3.448s-5.929 68.689-4.693 91.103c.737 13.267 1.798 32.906 2.194 42.559.304 7.441 1.162 17.122 1.088 21.206a34.454 34.454 0 01-2.056 10.483 75.555 75.555 0 01-4.306 10.613 10.8 10.8 0 01-1.595 2.507 28.768 28.768 0 01-2.941 2.859c-2.121 1.844-3.181 2.766-2.996 4.425.184 1.66 1.447 2.379 2.876 2.766 3.412 1.024 7.265.6 10.677 0 3.411-.599 7.219-2.213 8.676-5.467.386-.961.658-1.963.811-2.987.627-3.357 1.199-6.777 2.61-9.903a21.791 21.791 0 011.862-3.808c.922-1.29 1.992-2.701 2.157-4.315.13-1.346-.922-3.254-2.258-5.292-1.181-1.77-.858-2.996-.443-8.565.922-12.06 3.347-20.736 5.412-35.387 1.024-7.274.793-13.101-.433-21.206 1.401-9.598 3.826-19.666 5.255-26.295 2.314 13.83 3.799 18.929 5.062 29.421 1.743 14.54 9.921 44.975 11.221 52.803 1.3 7.828 2.12 13.074 2.766 19.436.525 5.532.922 16.596 1.632 21.657 1.106 8.086 9.432 5.615 10.778-1.512.83-4.785-1.18-14.835-1.254-21.021z" fill="#B16668"/><path d="M316.495 180.472c-.756 9.515-4.214 47.944-4.887 60.004-.544 9.69-.267 21.132 0 29.034 6.381 4.14 32.492 11.589 45.98-8.003 2.766 6.666 6.058 10.289 9.967 8.04 0 0 2.868-28.02 2.988-46.1.119-18.081-2.047-26.692-6.454-33.192-4.408-6.5-7.524-11.064-7.524-11.064l-40.07 1.281zm14.78 153.707c-.987-1.743-1.89-2.231-2.84-3.734a7.433 7.433 0 00-2.241 3.688c-.424 1.383-1.53 8.196-3.208 13.608-1.254 4.067-3.365 6.224-6.27 7.33a11.717 11.717 0 01-5.716.646c-3.605-.489-2.766-3.089-2.766-3.089-.83 1.153-4.269 3.955-6.307 6.021-1.152 1.171-.608 2.941.268 4.084 1.005.867 3.356 2.6 11.986 1.346 7.652-1.106 9.441-4.61 10.142-6.232a37.379 37.379 0 001.586-7.174 22.703 22.703 0 012.683-7.606c.175-.295.341-.572.507-.811a29.096 29.096 0 011.844-2.425c.534-.646.922-.922 1.106-1.568a5.844 5.844 0 00-.774-4.084z" fill="#37474F"/><path d="M315.047 157.367c.203 3.808 1.909 17.601 1.909 17.601 15.554 10.529 38.217-.535 38.217-.535l4.241-28.702s-9.303-9.533-1.687-21.51l-12.337-.793-13.203-.064-6.749-.12c-4.748 3.485-12.954 12.401-14.475 16.31-1.521 3.909-2.831 9.672 4.084 17.813z" fill="#7F3A6A"/><path d="M315.047 157.367c.203 3.808 1.909 17.601 1.909 17.601 15.554 10.529 38.217-.535 38.217-.535l4.241-28.702s-9.303-9.533-1.687-21.51l-12.337-.793-13.203-.064-6.749-.12c-4.748 3.485-12.954 12.401-14.475 16.31-1.521 3.909-2.831 9.672 4.084 17.813z" fill="#fff" opacity=".6"/><path opacity=".1" d="M330.306 156.74c1.347 1.743 7.598 3.891 12.733 1.613a11.622 11.622 0 007.146-9.404s1.466 7.92-6.454 11.147c-7.92 3.227-13.019-1.623-13.425-3.356z" fill="#263238"/><path d="M323.096 111.627s23.272 9.072 23.272 5.015c4.361-8.086 13.175-10.695 13.175-24.83 0-14.751-12.262-21.98-24.525-21.98a22.289 22.289 0 00-19.113 10.686c-6.998 1.844-5.209 11.507 1.798 13.24l5.393 17.869z" fill="#263238"/><path d="M346.976 119.86c-3.301-2.932-3.328-8.298-.046-11.986 3.282-3.688 8.612-4.287 11.912-1.346 3.301 2.941 3.329 8.298.056 11.986-3.273 3.688-8.612 4.25-11.922 1.346z" fill="#263238"/><path d="M346.368 123.548v-17.924s2.305 2.296 5.688-.184c3.034-2.222 4.306-6.989 2.176-9.45-1.502-1.743-6.168-2.702-7.984 1.05 0 0-5.403-.258-12.456-5.264-7.054-5.007-8.722-9.423-13.047-9.92-2.028 1.548-4.001 6.112-3.789 18.144.157 8.907 4.14 13.157 6.177 14.688 1.66 1.244 3.781 1.419 7.376.829v8.446s-10.612 11.811-2.065 11.285c12.862-.793 17.924-11.7 17.924-11.7z" fill="#B16668"/><path d="M346.248 96.21v4.943a3.497 3.497 0 01-3.522-3.458v-4.767l3.522 3.283zm-14.614.056a1.637 1.637 0 00.951 1.537 1.631 1.631 0 10-.951-1.537zm-13.544-4.269l3.559-2a1.984 1.984 0 00-1.214-.988 1.992 1.992 0 00-1.552.194 2.082 2.082 0 00-.793 2.794z" fill="#263238"/><path d="M332.888 105.707l-4.536 1.614a2.344 2.344 0 003.033 1.475 2.454 2.454 0 001.503-3.089z" fill="#9A4A4D"/><path d="M319.206 95.888a1.64 1.64 0 001.539 1.733 1.67 1.67 0 001.301-2.774 1.65 1.65 0 00-1.135-.545 1.659 1.659 0 00-1.705 1.586z" fill="#263238"/><path d="M327.043 95.095l-.24 8.731-4.684-1.42 4.924-7.311zm3.466 20.422c3.781-.479 11.571-2.673 12.779-5.698a7.799 7.799 0 01-2.766 3.854c-2.323 1.955-10.05 4.159-10.05 4.159l.037-2.315z" fill="#9A4A4D"/><path d="M340.79 70.376c-7.819-1.788-10.935.48-18.846-.36-3.245-.34-6.214-.497-8.381.6-2.471 1.245-3.919 3.974-3.587 7.487.563 5.937 6.962 7.459 6.962 7.459s5.43-12.217 12.64-12.125c7.21.093 11.212-3.06 11.212-3.06zm-24.157 102.453l-.138 7.643s5.034 3.854 14.273 4.472c9.238.618 22.21-3.024 25.816-5.735a12.616 12.616 0 01-.978-7.376 45.899 45.899 0 01-22.893 5.117c-12.945-.627-16.08-4.121-16.08-4.121z" fill="#263238"/><path d="M378.629 202.72c1.051-9.57 2.553-27.531 2.074-30.518-.738-4.527-8.547-30.426-11.239-38.318-2.573-7.469-6.454-9.746-13.065-9.746 0 0-4.61 2.065-4.61 9.404 0 5.588 2.766 11.313 2.766 11.313l11.599 32.925.682 22.875a10.636 10.636 0 01-1.844 6.306 37.478 37.478 0 00-2.646 3.983c-1.106 2.296-1.512 4.306-2.766 6.371-1.254 2.066-.627 2.186.664 2.315s2.941-1.614 4.13-3.688c.378-.637.738-1.181 1.07-1.632a34.75 34.75 0 01-2.296 12.041c-1.291 3.052-1.245 5.329 1.946 5.375 3.992.065 8.759-1.539 11.22-4.711 2.462-3.172 2.766-8.114 2.766-12.115 0-4.002-.949-8.197-.451-12.18z" fill="#B16668"/><path d="M244.809 191.306a83.38 83.38 0 00-5.089-.627c-4.361-.369-10.041-.71-10.041-.71l1.356-13.784 8.252 1.18c2.543.364 5.129.302 7.652-.184 3.329-.581 6.215-2.905 9.598-2.905 1.743 0 2.766 1.116 3.799 2.481.708.81 1.349 1.677 1.918 2.59 2.489 4.14 6.214 9.543 7.634 10.345 1.669.922 2.628.452 2.628.452 1.89 3.209-4.887 4.131-7.81 4.887a19.839 19.839 0 01-9.515-.176c-2.36-.746-9.118-3.346-10.382-3.549z" fill="#FFA8A7"/><path d="M172.276 121.704a21.833 21.833 0 00-8.861 5.265c-3.688 3.688-3.872 9.893-2.019 16.125 1.853 6.233 17.915 34.068 20.284 38.328 3.089 5.532 4.905 5.532 10.142 6.122 6.556.784 45.897 3.356 45.897 3.356 2.296-.452 3.532-11.931 1.236-14.024l-41.444-6.454-13.95-30.37s-3.771-17.288-11.285-18.348z" fill="#37474F"/><path d="M273.686 175.742c-2.627.738-4.665-.092-7.578-1.06-3.061-1.005-3.808-1.143-6.15-.406-2.176.692-4.684 1.19-5.578 2.481-.268.396-1.153 3.107-1.844 5.117.055.996 2.434 1.346 3.476-.102.922-1.235 1.088-1.964 1.484-2.415a26.7 26.7 0 014.748 0l10.908 4.868.534-8.483zm-29.411 15.481a3.831 3.831 0 013.181-1.604 22.602 22.602 0 014.102.212c1.227.147 2.462.239 3.688.387.627.083 1.245.166 1.844.286.406.073.922.359.922.857a5.159 5.159 0 011.605-.406 2.098 2.098 0 011.539.489c.922.839.286 2.13-.304 2.951a4.714 4.714 0 01-2.766 2.009c-2.13.311-4.3.205-6.389-.313-2.056-.535-9.377-2.858-7.422-4.868z" fill="#B16668"/><path d="M265.702 84.335c17.949 0 32.5-12.743 32.5-28.462s-14.551-28.462-32.5-28.462c-17.95 0-32.501 12.743-32.501 28.462 0 15.72 14.551 28.462 32.501 28.462z" fill="#7F3A6A"/><path d="M240.052 71.704c-.461 3.799-4.195 10.354-10.197 12.392a.402.402 0 00-.285.387.402.402 0 00.285.387 17.518 17.518 0 0018.44-5.44l-8.243-7.726zm51.3 0c.461 3.799 4.195 10.354 10.207 12.392a.404.404 0 01.284.387.404.404 0 01-.284.387 17.518 17.518 0 01-18.44-5.44l8.233-7.726z" fill="#7F3A6A"/><path d="M247.17 50.313a7.06 7.06 0 012.397.388 5.64 5.64 0 011.844 1.097 5.11 5.11 0 011.272 1.678c.3.678.469 1.407.498 2.148v2.702a5.981 5.981 0 01-.488 2.148 5.152 5.152 0 01-1.217 1.678 5.544 5.544 0 01-1.844 1.097 6.93 6.93 0 01-2.379.387h-5.136a.499.499 0 01-.369-.156.5.5 0 01-.147-.36v-12.3a.5.5 0 01.516-.507h5.053zm2.489 5.228c-.074-1.456-.922-2.185-2.591-2.185h-1.936v7.238h2.038c1.595 0 2.425-.738 2.489-2.194v-2.112c.019-.23.019-.48 0-.747zm15.25 5.053a.488.488 0 01.36.147.5.5 0 01.156.36v2.02a.53.53 0 01-.516.515h-9.026a.497.497 0 01-.36-.156.481.481 0 01-.147-.36v-12.3a.507.507 0 01.507-.507h8.879a.507.507 0 01.507.508v2.019a.484.484 0 01-.148.36.496.496 0 01-.359.156h-5.864v2.056h5.439a.5.5 0 01.368.149.52.52 0 01.149.367v2.02a.484.484 0 01-.148.36.505.505 0 01-.369.147h-5.439v2.139h6.011zm9.746-10.281a.756.756 0 01.58.203c.124.119.219.264.277.425l4.149 11.985a.773.773 0 01.083.286.423.423 0 01-.129.295.387.387 0 01-.249.111h-2.397a.756.756 0 01-.544-.166.645.645 0 01-.194-.313l-.553-1.559h-5.062l-.535 1.577a.673.673 0 01-.202.314.744.744 0 01-.544.165h-2.398a.407.407 0 01-.414-.415.71.71 0 01.073-.285l4.149-11.986c.059-.161.153-.306.277-.424a.754.754 0 01.581-.203l3.052-.01zm-3.08 8.298h3.08l-1.54-4.61-1.54 4.61zm19.039 1.983a.507.507 0 01.508.507v2.02a.501.501 0 01-.148.359.496.496 0 01-.36.156H281.8a.513.513 0 01-.369-.156.496.496 0 01-.147-.36v-12.3a.482.482 0 01.147-.359.508.508 0 01.369-.148h2.489a.493.493 0 01.36.148.5.5 0 01.157.36v9.773h5.808z" fill="#FAFAFA"/></svg>