<svg width="194" height="48" fill="none" xmlns="http://www.w3.org/2000/svg"><path d="M180.877 47.6v-8.288l1.288 3.332L173.401 28h5.852l6.328 10.612h-3.388L188.549 28h5.376l-8.736 14.644 1.232-3.332V47.6h-5.544zm-17.769-11.004h9.044v4.284h-9.044v-4.284zM163.5 47.6h-5.544V28h15.372v4.284H163.5V47.6zm-15.032 0V28h5.544v19.6h-5.544z" fill="#803A6A"/><path d="M132.369 43.26l-.308-6.216L140.489 28h6.104l-8.4 9.1-3.08 3.22-2.744 2.94zm-4.956 4.34V28h5.488v19.6h-5.488zm13.16 0l-6.384-8.092 3.612-3.864 9.212 11.956h-6.44z" fill="#DF286A"/><path d="M106.687 47.6V28h8.96c1.792 0 3.332.29 4.62.868 1.306.579 2.314 1.419 3.024 2.52.709 1.083 1.064 2.37 1.064 3.864 0 1.475-.355 2.753-1.064 3.836-.71 1.064-1.718 1.885-3.024 2.464-1.288.56-2.828.84-4.62.84h-5.88l2.464-2.324V47.6h-5.544zm12.124 0l-4.872-7.14h5.908l4.9 7.14h-5.936zm-6.58-6.944l-2.464-2.548h5.544c1.157 0 2.016-.252 2.576-.756.578-.504.868-1.204.868-2.1 0-.915-.29-1.624-.868-2.128-.56-.504-1.419-.756-2.576-.756h-5.544l2.464-2.548v10.836zM82.323 47.6L90.975 28h5.46l8.68 19.6h-5.768L92.57 30.716h2.184L87.979 47.6h-5.656zm4.732-3.808l1.428-4.088h9.576l1.428 4.088H87.055z" fill="#803A6A"/><path d="M57.96 47.6V28h4.564l8.12 13.328h-2.408L76.132 28h4.564l.056 19.6h-5.096L75.6 35.756h.868l-5.908 9.912h-2.464l-6.076-9.912h1.064V47.6H57.96z" fill="#EB8B27"/><path fill="url(#paint0_linear_7_952)" d="M38.232 18.799h7.3V48h-7.3z"/><path fill="url(#paint1_linear_7_952)" d="M26.916 26.099h7.665V48h-7.665z"/><path fill="url(#paint2_linear_7_952)" d="M15.966 33.399h7.665V48h-7.665z"/><path fill="url(#paint3_linear_7_952)" d="M5.015 38.51h7.665V48H5.015z"/><path d="M39.327 16.79l-4.928-4.014 4.928-6.753-2.373-1.825L47.904 0l-1.277 11.863-2.372-2.007-4.928 6.935z" fill="#803A6A"/><path d="M36.59 13.688C29.835 21.353 19.98 29.748 1 31.026c20.587 1.607 33.52-9.916 37.414-15.878l-1.825-1.46z" fill="#803A6A"/><defs><linearGradient id="paint0_linear_7_952" x1="39.964" y1="42.176" x2="47.642" y2="40.372" gradientUnits="userSpaceOnUse"><stop stop-color="#DF286A"/><stop offset="0" stop-color="#DF286A"/><stop offset=".479" stop-color="#E3484D"/><stop offset=".479" stop-color="#E3484D"/><stop offset="1" stop-color="#E86A2D"/></linearGradient><linearGradient id="paint1_linear_7_952" x1="28.735" y1="43.632" x2="36.411" y2="41.107" gradientUnits="userSpaceOnUse"><stop stop-color="#DF286A"/><stop offset="0" stop-color="#DF286A"/><stop offset=".479" stop-color="#E3484D"/><stop offset=".479" stop-color="#E3484D"/><stop offset="1" stop-color="#E86A2D"/></linearGradient><linearGradient id="paint2_linear_7_952" x1="17.784" y1="45.088" x2="24.625" y2="41.712" gradientUnits="userSpaceOnUse"><stop stop-color="#DF286A"/><stop offset="0" stop-color="#DF286A"/><stop offset=".479" stop-color="#E3484D"/><stop offset=".479" stop-color="#E3484D"/><stop offset="1" stop-color="#E86A2D"/></linearGradient><linearGradient id="paint3_linear_7_952" x1="6.834" y1="46.107" x2="12.23" y2="42.01" gradientUnits="userSpaceOnUse"><stop stop-color="#DF286A"/><stop offset="0" stop-color="#DF286A"/><stop offset=".479" stop-color="#E3484D"/><stop offset=".479" stop-color="#E3484D"/><stop offset="1" stop-color="#E86A2D"/></linearGradient></defs></svg>