<svg width="193" height="23" fill="none" xmlns="http://www.w3.org/2000/svg"><mask id="a" maskUnits="userSpaceOnUse" x=".618" y="-.536" width="193" height="23" fill="#000"><path fill="#fff" d="M.618-.536h193v23h-193z"/><path d="M6.867 20.392L2.618 2.632H6.29L9.146 15.16l3.336-12.528h3.264l3.312 12.528 2.856-12.528h3.672l-4.247 17.76h-3.624l-3.6-12.528-3.624 12.528H6.867zm24.38.12c-.385 0-.825-.04-1.32-.12a4.03 4.03 0 01-1.44-.48c-.449-.256-.825-.64-1.129-1.152-.288-.528-.432-1.248-.432-2.16V6.688c0-.784.12-1.44.36-1.968s.56-.944.96-1.248c.4-.304.84-.52 1.32-.648a5.48 5.48 0 011.416-.192c1.2 0 2.256.016 3.168.048.928.032 1.76.072 2.496.12.736.032 1.408.08 2.016.144V5.92h-6.624c-.496 0-.88.12-1.152.36-.272.24-.408.608-.408 1.104v2.568l7.032.192v2.808l-7.032.192v2.448c0 .416.064.744.192.984.144.224.328.384.552.48.24.08.488.12.744.12h6.696v2.976c-.704.08-1.488.144-2.352.192-.848.048-1.712.088-2.592.12-.864.032-1.688.048-2.472.048zm16.187-.12V2.632h6.984c1.76 0 3.04.408 3.84 1.224.816.8 1.224 1.944 1.224 3.432 0 .704-.104 1.328-.312 1.872a3.402 3.402 0 01-.84 1.32 3.002 3.002 0 01-1.32.696 4.13 4.13 0 011.104.456c.368.208.696.488.984.84.304.352.536.784.696 1.296.176.496.264 1.072.264 1.728 0 1.2-.208 2.16-.624 2.88-.4.72-1 1.24-1.8 1.56-.784.304-1.752.456-2.904.456h-7.296zm3.552-3.192h3.648c.416 0 .776-.08 1.08-.24.304-.16.536-.408.696-.744.176-.336.264-.784.264-1.344 0-.464-.088-.856-.264-1.176a1.896 1.896 0 00-.72-.744 2.07 2.07 0 00-1.056-.264h-3.648V17.2zm0-7.248h3.456c.512 0 .912-.184 1.2-.552.304-.384.456-.88.456-1.488.016-.784-.144-1.328-.48-1.632a1.76 1.76 0 00-1.224-.456h-3.408v4.128zm18.191 10.56c-.976 0-1.888-.08-2.736-.24-.848-.176-1.592-.472-2.232-.888-.624-.432-1.112-1.024-1.464-1.776-.336-.768-.504-1.744-.504-2.928V2.632h3.552v12.024c0 .656.128 1.176.384 1.56.272.384.656.664 1.152.84.512.176 1.128.264 1.848.264.704 0 1.304-.088 1.8-.264.512-.176.896-.456 1.152-.84.272-.384.408-.904.408-1.56V2.632h3.576V14.68c0 1.184-.176 2.16-.528 2.928-.352.752-.84 1.344-1.464 1.776-.624.416-1.36.712-2.208.888-.832.16-1.744.24-2.736.24zm13.981-.12v-5.376L77.806 2.632h3.696l3.504 8.76 3.48-8.76h3.552L86.71 15.016v5.376h-3.552zm20.754 0V5.824H99.04V2.632h13.32v3.192h-4.896v14.568h-3.552zm10.366 0V2.632h7.344c.704 0 1.36.088 1.968.264.608.16 1.144.448 1.608.864.464.416.824.992 1.08 1.728.272.736.408 1.68.408 2.832 0 .816-.08 1.512-.24 2.088-.16.576-.376 1.048-.648 1.416a3.346 3.346 0 01-.888.888 5.86 5.86 0 01-1.032.552l3.312 7.128h-3.624l-2.856-6.576h-.672a11.19 11.19 0 00-.744-.024h-.768c-.256 0-.488-.008-.696-.024v6.624h-3.552zm3.552-9.432h3.168c.32 0 .608-.04.864-.12.256-.08.48-.216.672-.408.192-.208.336-.48.432-.816.112-.336.168-.768.168-1.296 0-.496-.056-.904-.168-1.224-.096-.336-.24-.592-.432-.768a1.424 1.424 0 00-.672-.384 2.891 2.891 0 00-.864-.12h-3.168v5.136zm10.367 9.432l5.567-17.76h4.488l5.569 17.76h-3.696l-1.128-3.72h-6.048l-1.104 3.72h-3.648zm5.592-6.912h4.368l-2.185-7.8-2.183 7.8zm11.497 6.912l-.001-13.704c0-.784.12-1.44.36-1.968s.56-.944.96-1.248c.4-.304.84-.52 1.32-.648a5.48 5.48 0 011.416-.192c.576 0 1.288.008 2.136.024a54.899 54.899 0 015.544.288V5.92h-6.696c-.496 0-.872.136-1.128.408-.24.256-.36.6-.36 1.032v3.024l7.032.192.001 2.808-7.032.192v6.816h-3.552zm13.757 0V6.688c0-.784.12-1.44.36-1.968s.56-.944.96-1.248c.4-.304.84-.52 1.32-.648a5.48 5.48 0 011.416-.192c.576 0 1.288.008 2.136.024a54.899 54.899 0 015.544.288V5.92h-6.696c-.496 0-.872.136-1.128.408-.24.256-.36.6-.36 1.032v3.024l7.032.192v2.808l-7.032.192v6.816h-3.552zm13.993 0l-.001-17.76h3.552l.001 17.76h-3.552zm12.608.144c-1.04 0-1.96-.12-2.76-.36a4.317 4.317 0 01-2.016-1.32c-.544-.64-.96-1.552-1.248-2.736-.272-1.2-.408-2.752-.408-4.656 0-1.84.144-3.344.432-4.512.304-1.184.736-2.096 1.296-2.736a4.404 4.404 0 012.04-1.368c.8-.256 1.704-.384 2.712-.384.8 0 1.544.048 2.232.144.704.08 1.336.184 1.896.312.56.112 1.032.24 1.416.384v2.76c-.288-.064-.68-.128-1.176-.192a20.69 20.69 0 00-1.656-.144 25.692 25.692 0 00-1.968-.072c-.672 0-1.248.08-1.728.24a2.1 2.1 0 00-1.128.84c-.272.4-.48.984-.624 1.752-.128.768-.192 1.768-.192 3 0 1.184.056 2.16.168 2.928.128.768.328 1.368.6 1.8.272.416.64.712 1.104.888.48.16 1.08.24 1.8.24 1.216 0 2.2-.024 2.952-.072a26.028 26.028 0 001.848-.168v2.736c-.432.144-.928.272-1.488.384-.56.096-1.176.168-1.848.216-.672.064-1.424.096-2.256.096z"/></mask><path d="M6.867 20.392L2.618 2.632H6.29L9.146 15.16l3.336-12.528h3.264l3.312 12.528 2.856-12.528h3.672l-4.247 17.76h-3.624l-3.6-12.528-3.624 12.528H6.867zm24.38.12c-.385 0-.825-.04-1.32-.12a4.03 4.03 0 01-1.44-.48c-.449-.256-.825-.64-1.129-1.152-.288-.528-.432-1.248-.432-2.16V6.688c0-.784.12-1.44.36-1.968s.56-.944.96-1.248c.4-.304.84-.52 1.32-.648a5.48 5.48 0 011.416-.192c1.2 0 2.256.016 3.168.048.928.032 1.76.072 2.496.12.736.032 1.408.08 2.016.144V5.92h-6.624c-.496 0-.88.12-1.152.36-.272.24-.408.608-.408 1.104v2.568l7.032.192v2.808l-7.032.192v2.448c0 .416.064.744.192.984.144.224.328.384.552.48.24.08.488.12.744.12h6.696v2.976c-.704.08-1.488.144-2.352.192-.848.048-1.712.088-2.592.12-.864.032-1.688.048-2.472.048zm16.187-.12V2.632h6.984c1.76 0 3.04.408 3.84 1.224.816.8 1.224 1.944 1.224 3.432 0 .704-.104 1.328-.312 1.872a3.402 3.402 0 01-.84 1.32 3.002 3.002 0 01-1.32.696 4.13 4.13 0 011.104.456c.368.208.696.488.984.84.304.352.536.784.696 1.296.176.496.264 1.072.264 1.728 0 1.2-.208 2.16-.624 2.88-.4.72-1 1.24-1.8 1.56-.784.304-1.752.456-2.904.456h-7.296zm3.552-3.192h3.648c.416 0 .776-.08 1.08-.24.304-.16.536-.408.696-.744.176-.336.264-.784.264-1.344 0-.464-.088-.856-.264-1.176a1.896 1.896 0 00-.72-.744 2.07 2.07 0 00-1.056-.264h-3.648V17.2zm0-7.248h3.456c.512 0 .912-.184 1.2-.552.304-.384.456-.88.456-1.488.016-.784-.144-1.328-.48-1.632a1.76 1.76 0 00-1.224-.456h-3.408v4.128zm18.191 10.56c-.976 0-1.888-.08-2.736-.24-.848-.176-1.592-.472-2.232-.888-.624-.432-1.112-1.024-1.464-1.776-.336-.768-.504-1.744-.504-2.928V2.632h3.552v12.024c0 .656.128 1.176.384 1.56.272.384.656.664 1.152.84.512.176 1.128.264 1.848.264.704 0 1.304-.088 1.8-.264.512-.176.896-.456 1.152-.84.272-.384.408-.904.408-1.56V2.632h3.576V14.68c0 1.184-.176 2.16-.528 2.928-.352.752-.84 1.344-1.464 1.776-.624.416-1.36.712-2.208.888-.832.16-1.744.24-2.736.24zm13.981-.12v-5.376L77.806 2.632h3.696l3.504 8.76 3.48-8.76h3.552L86.71 15.016v5.376h-3.552zm20.754 0V5.824H99.04V2.632h13.32v3.192h-4.896v14.568h-3.552zm10.366 0V2.632h7.344c.704 0 1.36.088 1.968.264.608.16 1.144.448 1.608.864.464.416.824.992 1.08 1.728.272.736.408 1.68.408 2.832 0 .816-.08 1.512-.24 2.088-.16.576-.376 1.048-.648 1.416a3.346 3.346 0 01-.888.888 5.86 5.86 0 01-1.032.552l3.312 7.128h-3.624l-2.856-6.576h-.672a11.19 11.19 0 00-.744-.024h-.768c-.256 0-.488-.008-.696-.024v6.624h-3.552zm3.552-9.432h3.168c.32 0 .608-.04.864-.12.256-.08.48-.216.672-.408.192-.208.336-.48.432-.816.112-.336.168-.768.168-1.296 0-.496-.056-.904-.168-1.224-.096-.336-.24-.592-.432-.768a1.424 1.424 0 00-.672-.384 2.891 2.891 0 00-.864-.12h-3.168v5.136zm10.367 9.432l5.567-17.76h4.488l5.569 17.76h-3.696l-1.128-3.72h-6.048l-1.104 3.72h-3.648zm5.592-6.912h4.368l-2.185-7.8-2.183 7.8zm11.497 6.912l-.001-13.704c0-.784.12-1.44.36-1.968s.56-.944.96-1.248c.4-.304.84-.52 1.32-.648a5.48 5.48 0 011.416-.192c.576 0 1.288.008 2.136.024a54.899 54.899 0 015.544.288V5.92h-6.696c-.496 0-.872.136-1.128.408-.24.256-.36.6-.36 1.032v3.024l7.032.192.001 2.808-7.032.192v6.816h-3.552zm13.757 0V6.688c0-.784.12-1.44.36-1.968s.56-.944.96-1.248c.4-.304.84-.52 1.32-.648a5.48 5.48 0 011.416-.192c.576 0 1.288.008 2.136.024a54.899 54.899 0 015.544.288V5.92h-6.696c-.496 0-.872.136-1.128.408-.24.256-.36.6-.36 1.032v3.024l7.032.192v2.808l-7.032.192v6.816h-3.552zm13.993 0l-.001-17.76h3.552l.001 17.76h-3.552zm12.608.144c-1.04 0-1.96-.12-2.76-.36a4.317 4.317 0 01-2.016-1.32c-.544-.64-.96-1.552-1.248-2.736-.272-1.2-.408-2.752-.408-4.656 0-1.84.144-3.344.432-4.512.304-1.184.736-2.096 1.296-2.736a4.404 4.404 0 012.04-1.368c.8-.256 1.704-.384 2.712-.384.8 0 1.544.048 2.232.144.704.08 1.336.184 1.896.312.56.112 1.032.24 1.416.384v2.76c-.288-.064-.68-.128-1.176-.192a20.69 20.69 0 00-1.656-.144 25.692 25.692 0 00-1.968-.072c-.672 0-1.248.08-1.728.24a2.1 2.1 0 00-1.128.84c-.272.4-.48.984-.624 1.752-.128.768-.192 1.768-.192 3 0 1.184.056 2.16.168 2.928.128.768.328 1.368.6 1.8.272.416.64.712 1.104.888.48.16 1.08.24 1.8.24 1.216 0 2.2-.024 2.952-.072a26.028 26.028 0 001.848-.168v2.736c-.432.144-.928.272-1.488.384-.56.096-1.176.168-1.848.216-.672.064-1.424.096-2.256.096z" stroke="#fff" stroke-width="3" mask="url(#a)"/></svg>