<svg width="40" height="40" viewBox="0 0 40 40" fill="none" xmlns="http://www.w3.org/2000/svg">
<g clip-path="url(#clip0_1_2874)">
<path d="M20 0C8.97204 0 0 8.97204 0 20C0 31.0271 8.97204 40 20 40C31.0271 40 40 31.0271 40 20C40 8.97204 31.0288 0 20 0Z" fill="#7F3A6A"/>
<path d="M22.1135 19.616H25.3674L25.7887 15.5179H22.1151V13.1092C22.1151 12.2037 22.7153 11.9926 23.1374 11.9926H25.7307V8.0137L22.1578 8C18.1942 8 17.292 10.9671 17.292 12.8659V15.5171H15V19.616H17.292V31.2136H22.1135V19.616Z" fill="white"/>
</g>
<defs>
<clipPath id="clip0_1_2874">
<rect width="40" height="40" fill="white"/>
</clipPath>
</defs>
</svg>
