<svg width="22" height="22" viewBox="0 0 22 22" fill="none" xmlns="http://www.w3.org/2000/svg">
<g clip-path="url(#clip0_1_2740)">
<path d="M21.9785 6.46806C21.9269 5.29912 21.7379 4.49548 21.4671 3.79911C21.1878 3.05994 20.758 2.39816 20.1949 1.84802C19.6448 1.28931 18.9786 0.855178 18.248 0.580191C17.5476 0.309402 16.7482 0.12037 15.5792 0.0688306C14.4016 0.0129267 14.0277 0 11.0408 0C8.05387 0 7.68001 0.0129267 6.5067 0.0644657C5.33775 0.116005 4.53411 0.305205 3.83792 0.575827C3.09857 0.855178 2.43679 1.28495 1.88665 1.84802C1.32795 2.39816 0.893981 3.0643 0.618827 3.79492C0.348037 4.49548 0.159005 5.29475 0.107466 6.4637C0.051562 7.64137 0.0386353 8.01524 0.0386353 11.0021C0.0386353 13.9891 0.051562 14.3629 0.103101 15.5362C0.15464 16.7052 0.34384 17.5088 0.61463 18.2052C0.893981 18.9444 1.32795 19.6061 1.88665 20.1563C2.43679 20.715 3.10294 21.1491 3.83355 21.4241C4.53411 21.6949 5.33339 21.8839 6.5025 21.9355C7.67564 21.9872 8.04968 21.9999 11.0366 21.9999C14.0235 21.9999 14.3974 21.9872 15.5707 21.9355C16.7396 21.8839 17.5433 21.6949 18.2395 21.4241C19.718 20.8525 20.8869 19.6835 21.4585 18.2052C21.7292 17.5046 21.9184 16.7052 21.9699 15.5362C22.0214 14.3629 22.0344 13.9891 22.0344 11.0021C22.0344 8.01524 22.03 7.64137 21.9785 6.46806ZM19.9973 15.4503C19.95 16.5247 19.7695 17.1049 19.6191 17.4917C19.2494 18.4501 18.4888 19.2108 17.5303 19.5805C17.1435 19.7309 16.5592 19.9113 15.4889 19.9585C14.3285 20.0102 13.9805 20.023 11.0451 20.023C8.10978 20.023 7.7574 20.0102 6.60121 19.9585C5.52678 19.9113 4.94659 19.7309 4.5598 19.5805C4.08285 19.4042 3.64872 19.1248 3.29634 18.7595C2.93103 18.4028 2.65168 17.973 2.47541 17.4961C2.32499 17.1093 2.14452 16.5247 2.09734 15.4546C2.04563 14.2943 2.03288 13.9461 2.03288 11.0107C2.03288 8.07534 2.04563 7.72296 2.09734 6.56694C2.14452 5.49251 2.32499 4.91232 2.47541 4.52553C2.65168 4.04841 2.93103 3.61444 3.3007 3.2619C3.65728 2.89659 4.08705 2.61724 4.56416 2.44114C4.95096 2.29072 5.53551 2.11024 6.60558 2.0629C7.76596 2.01136 8.11414 1.99844 11.0493 1.99844C13.9891 1.99844 14.3371 2.01136 15.4933 2.0629C16.5677 2.11024 17.1479 2.29072 17.5347 2.44114C18.0116 2.61724 18.4458 2.89659 18.7982 3.2619C19.1635 3.61864 19.4428 4.04841 19.6191 4.52553C19.7695 4.91232 19.95 5.49671 19.9973 6.56694C20.0489 7.72732 20.0618 8.07534 20.0618 11.0107C20.0618 13.9461 20.0489 14.2899 19.9973 15.4503Z" fill="white"/>
<path d="M11.0408 5.35071C7.92077 5.35071 5.38931 7.88199 5.38931 11.0022C5.38931 14.1224 7.92077 16.6537 11.0408 16.6537C14.161 16.6537 16.6923 14.1224 16.6923 11.0022C16.6923 7.88199 14.161 5.35071 11.0408 5.35071ZM11.0408 14.6682C9.01668 14.6682 7.37482 13.0265 7.37482 11.0022C7.37482 8.97791 9.01668 7.33622 11.0408 7.33622C13.0651 7.33622 14.7068 8.97791 14.7068 11.0022C14.7068 13.0265 13.0651 14.6682 11.0408 14.6682Z" fill="white"/>
<path d="M18.2353 5.12723C18.2353 5.85582 17.6445 6.44659 16.9157 6.44659C16.1871 6.44659 15.5964 5.85582 15.5964 5.12723C15.5964 4.39846 16.1871 3.80786 16.9157 3.80786C17.6445 3.80786 18.2353 4.39846 18.2353 5.12723Z" fill="white"/>
</g>
<defs>
<clipPath id="clip0_1_2740">
<rect width="22" height="22" fill="white"/>
</clipPath>
</defs>
</svg>
