<svg width="40" height="40" viewBox="0 0 40 40" fill="none" xmlns="http://www.w3.org/2000/svg">
<g clip-path="url(#clip0_1_2876)">
<path d="M20 0C16.0444 0 12.1776 1.17298 8.8886 3.37061C5.59962 5.56824 3.03617 8.69181 1.52242 12.3463C0.00866568 16.0009 -0.387401 20.0222 0.384303 23.9018C1.15601 27.7814 3.06082 31.3451 5.85787 34.1421C8.65492 36.9392 12.2186 38.844 16.0982 39.6157C19.9778 40.3874 23.9992 39.9913 27.6537 38.4776C31.3082 36.9638 34.4318 34.4004 36.6294 31.1114C38.827 27.8224 40 23.9556 40 20C40 14.6957 37.8929 9.60859 34.1421 5.85786C30.3914 2.10714 25.3043 0 20 0Z" fill="#7F3A6A"/>
<g clip-path="url(#clip1_1_2876)">
<path d="M30.9785 15.4681C30.9269 14.2991 30.7379 13.4955 30.4671 12.7991C30.1878 12.0599 29.758 11.3982 29.1949 10.848C28.6448 10.2893 27.9786 9.85518 27.248 9.58019C26.5476 9.3094 25.7482 9.12037 24.5793 9.06883C23.4016 9.01293 23.0277 9 20.0408 9C17.0539 9 16.68 9.01293 15.5067 9.06447C14.3378 9.116 13.5341 9.3052 12.8379 9.57583C12.0986 9.85518 11.4368 10.2849 10.8867 10.848C10.328 11.3982 9.894 12.0643 9.61884 12.7949C9.34805 13.4955 9.15902 14.2948 9.10748 15.4637C9.05158 16.6414 9.03865 17.0152 9.03865 20.0021C9.03865 22.9891 9.05158 23.3629 9.10312 24.5362C9.15466 25.7052 9.34386 26.5088 9.61464 27.2052C9.894 27.9444 10.328 28.6061 10.8867 29.1563C11.4368 29.715 12.103 30.1491 12.8336 30.4241C13.5341 30.6949 14.3334 30.8839 15.5025 30.9355C16.6757 30.9872 17.0497 30.9999 20.0366 30.9999C23.0235 30.9999 23.3974 30.9872 24.5707 30.9355C25.7396 30.8839 26.5433 30.6949 27.2395 30.4241C28.718 29.8525 29.8869 28.6835 30.4586 27.2052C30.7292 26.5046 30.9184 25.7052 30.9699 24.5362C31.0215 23.3629 31.0344 22.9891 31.0344 20.0021C31.0344 17.0152 31.03 16.6414 30.9785 15.4681ZM28.9973 24.4503C28.95 25.5247 28.7695 26.1049 28.6191 26.4917C28.2494 27.4501 27.4888 28.2108 26.5303 28.5805C26.1436 28.7309 25.5592 28.9113 24.4889 28.9585C23.3286 29.0102 22.9805 29.023 20.0452 29.023C17.1098 29.023 16.7574 29.0102 15.6012 28.9585C14.5268 28.9113 13.9466 28.7309 13.5598 28.5805C13.0829 28.4042 12.6487 28.1248 12.2964 27.7595C11.931 27.4028 11.6517 26.973 11.4754 26.4961C11.325 26.1093 11.1445 25.5247 11.0974 24.4546C11.0456 23.2943 11.0329 22.9461 11.0329 20.0107C11.0329 17.0753 11.0456 16.723 11.0974 15.5669C11.1445 14.4925 11.325 13.9123 11.4754 13.5255C11.6517 13.0484 11.931 12.6144 12.3007 12.2619C12.6573 11.8966 13.0871 11.6172 13.5642 11.4411C13.951 11.2907 14.5355 11.1102 15.6056 11.0629C16.766 11.0114 17.1142 10.9984 20.0494 10.9984C22.9891 10.9984 23.3371 11.0114 24.4933 11.0629C25.5677 11.1102 26.1479 11.2907 26.5347 11.4411C27.0117 11.6172 27.4458 11.8966 27.7982 12.2619C28.1635 12.6186 28.4428 13.0484 28.6191 13.5255C28.7695 13.9123 28.95 14.4967 28.9973 15.5669C29.0489 16.7273 29.0618 17.0753 29.0618 20.0107C29.0618 22.9461 29.0489 23.2899 28.9973 24.4503Z" fill="white"/>
<path d="M20.0408 14.3506C16.9208 14.3506 14.3893 16.8819 14.3893 20.0021C14.3893 23.1223 16.9208 25.6536 20.0408 25.6536C23.161 25.6536 25.6923 23.1223 25.6923 20.0021C25.6923 16.8819 23.161 14.3506 20.0408 14.3506ZM20.0408 23.6681C18.0167 23.6681 16.3748 22.0264 16.3748 20.0021C16.3748 17.9778 18.0167 16.3361 20.0408 16.3361C22.0651 16.3361 23.7068 17.9778 23.7068 20.0021C23.7068 22.0264 22.0651 23.6681 20.0408 23.6681Z" fill="white"/>
<path d="M27.2353 14.1272C27.2353 14.8558 26.6445 15.4466 25.9157 15.4466C25.1871 15.4466 24.5964 14.8558 24.5964 14.1272C24.5964 13.3985 25.1871 12.8079 25.9157 12.8079C26.6445 12.8079 27.2353 13.3985 27.2353 14.1272Z" fill="white"/>
</g>
</g>
<defs>
<clipPath id="clip0_1_2876">
<rect width="40" height="40" fill="white"/>
</clipPath>
<clipPath id="clip1_1_2876">
<rect width="22" height="22" fill="white" transform="translate(9 9)"/>
</clipPath>
</defs>
</svg>
