<svg width="40" height="40" viewBox="0 0 40 40" fill="none" xmlns="http://www.w3.org/2000/svg">
<g clip-path="url(#clip0_1_2875)">
<path d="M34.5455 0H5.45455C4.00791 0 2.62053 0.574674 1.5976 1.5976C0.574674 2.62053 0 4.00791 0 5.45455L0 34.5455C0 35.9921 0.574674 37.3795 1.5976 38.4024C2.62053 39.4253 4.00791 40 5.45455 40H34.5455C35.9921 40 37.3795 39.4253 38.4024 38.4024C39.4253 37.3795 40 35.9921 40 34.5455V5.45455C40 4.00791 39.4253 2.62053 38.4024 1.5976C37.3795 0.574674 35.9921 0 34.5455 0Z" fill="#7F3A6A"/>
<path d="M13.5729 31.9779C13.6151 31.8754 13.6367 31.7655 13.6364 31.6545V16.5909C13.6364 16.3671 13.5477 16.1524 13.3896 15.9939C13.2315 15.8354 13.0171 15.7461 12.7932 15.7455H9.20006C8.97583 15.7455 8.76079 15.8345 8.60224 15.9931C8.44368 16.1516 8.35461 16.3667 8.35461 16.5909V31.6545C8.35431 31.7657 8.37597 31.8757 8.41835 31.9784C8.46074 32.0812 8.523 32.1745 8.60157 32.253C8.68014 32.3316 8.77346 32.3939 8.87617 32.4363C8.97888 32.4786 9.08895 32.5003 9.20006 32.5H12.7932C12.9042 32.5 13.014 32.4781 13.1164 32.4356C13.2189 32.3931 13.3119 32.3308 13.3903 32.2522C13.4686 32.1737 13.5307 32.0805 13.5729 31.9779Z" fill="white"/>
<path d="M9.10153 13.7436C9.66215 14.1182 10.3213 14.3182 10.9955 14.3182C11.8997 14.3182 12.7668 13.959 13.4061 13.3197C14.0454 12.6804 14.4046 11.8132 14.4046 10.9091C14.4046 10.2348 14.2047 9.57573 13.8301 9.0151C13.4555 8.45448 12.9231 8.01753 12.3001 7.7595C11.6772 7.50148 10.9917 7.43397 10.3304 7.56551C9.66914 7.69705 9.0617 8.02173 8.58493 8.4985C8.10816 8.97527 7.78347 9.58271 7.65193 10.244C7.52039 10.9053 7.5879 11.5908 7.84593 12.2137C8.10396 12.8366 8.54091 13.3691 9.10153 13.7436Z" fill="white"/>
<path d="M32.3597 32.0114C32.3986 31.917 32.4185 31.8158 32.4182 31.7136L32.4137 24.4318L32.4137 24.3697C32.414 21.1889 32.4144 15.4955 26.2773 15.4955C23.4887 15.4955 22.1819 16.5136 21.3001 17.8386V16.525C21.3001 16.3189 21.2182 16.1212 21.0724 15.9754C20.9266 15.8296 20.7289 15.7477 20.5228 15.7477H16.791C16.689 15.7477 16.588 15.7678 16.4939 15.8069C16.3997 15.846 16.3142 15.9033 16.2422 15.9755C16.1702 16.0477 16.1131 16.1334 16.0743 16.2277C16.0355 16.322 16.0157 16.423 16.016 16.525V31.7227C16.0157 31.8247 16.0355 31.9257 16.0743 32.02C16.1131 32.1143 16.1702 32.2 16.2422 32.2722C16.3142 32.3444 16.3997 32.4017 16.4939 32.4408C16.588 32.4799 16.689 32.5 16.791 32.5H20.5228C20.727 32.497 20.9218 32.4138 21.0651 32.2684C21.2084 32.1229 21.2887 31.9269 21.2887 31.7227V23.5727C21.3842 22.4773 21.8682 20.0386 24.2432 20.0386C27.3092 20.0386 27.0001 23.6023 27.0001 24.6568V31.7136C26.9998 31.8158 27.0197 31.917 27.0586 32.0114C27.0976 32.1059 27.1548 32.1917 27.2271 32.2639C27.2993 32.3362 27.3851 32.3934 27.4795 32.4324C27.574 32.4713 27.6752 32.4912 27.7773 32.4909H31.641C31.7431 32.4912 31.8443 32.4713 31.9388 32.4324C32.0332 32.3934 32.119 32.3362 32.1913 32.2639C32.2635 32.1917 32.3207 32.1059 32.3597 32.0114Z" fill="white"/>
</g>
<defs>
<clipPath id="clip0_1_2875">
<rect width="40" height="40" fill="white"/>
</clipPath>
</defs>
</svg>
