<svg width="26" height="26" viewBox="0 0 26 26" fill="none" xmlns="http://www.w3.org/2000/svg">
<path d="M6.5729 24.9779C6.61514 24.8754 6.63673 24.7655 6.63643 24.6545V9.59091C6.63643 9.36708 6.54767 9.15238 6.3896 8.99389C6.23154 8.8354 6.01708 8.74606 5.79325 8.74546H2.20006C1.97583 8.74546 1.76079 8.83453 1.60224 8.99308C1.44368 9.15164 1.35461 9.36668 1.35461 9.59091V24.6545C1.35431 24.7657 1.37597 24.8757 1.41835 24.9784C1.46074 25.0812 1.523 25.1745 1.60157 25.253C1.68014 25.3316 1.77346 25.3939 1.87617 25.4363C1.97888 25.4786 2.08895 25.5003 2.20006 25.5H5.79325C5.90417 25.5 6.014 25.4781 6.11644 25.4356C6.21889 25.3931 6.31194 25.3308 6.39027 25.2522C6.4686 25.1737 6.53066 25.0805 6.5729 24.9779Z" fill="white"/>
<path d="M2.10153 6.74365C2.66215 7.11824 3.32126 7.31818 3.99552 7.31818C4.89967 7.31818 5.76678 6.95901 6.40611 6.31968C7.04544 5.68036 7.40461 4.81324 7.40461 3.90909C7.40461 3.23484 7.20467 2.57573 6.83007 2.0151C6.45548 1.45448 5.92305 1.01753 5.30012 0.759504C4.67719 0.501477 3.99174 0.433966 3.33044 0.565506C2.66914 0.697047 2.0617 1.02173 1.58493 1.4985C1.10816 1.97527 0.783472 2.58271 0.651932 3.24401C0.520391 3.90531 0.587903 4.59076 0.845929 5.2137C1.10396 5.83663 1.54091 6.36905 2.10153 6.74365Z" fill="white"/>
<path d="M25.3597 25.0114C25.3986 24.917 25.4185 24.8158 25.4182 24.7136L25.4137 17.4318L25.4137 17.3697C25.414 14.1889 25.4144 8.49546 19.2773 8.49546C16.4887 8.49546 15.1819 9.51364 14.3001 10.8386V9.525C14.3001 9.31886 14.2182 9.12115 14.0724 8.97539C13.9266 8.82962 13.7289 8.74773 13.5228 8.74773H9.79097C9.68901 8.74773 9.58804 8.76785 9.49387 8.80694C9.39969 8.84603 9.31416 8.90332 9.24216 8.97552C9.17017 9.04773 9.11313 9.13343 9.07431 9.22772C9.0355 9.32201 9.01567 9.42304 9.01597 9.525V24.7227C9.01567 24.8247 9.0355 24.9257 9.07431 25.02C9.11313 25.1143 9.17017 25.2 9.24216 25.2722C9.31416 25.3444 9.39969 25.4017 9.49387 25.4408C9.58804 25.4799 9.68901 25.5 9.79097 25.5H13.5228C13.727 25.497 13.9218 25.4138 14.0651 25.2684C14.2084 25.1229 14.2887 24.9269 14.2887 24.7227V16.5727C14.3842 15.4773 14.8682 13.0386 17.2432 13.0386C20.3092 13.0386 20.0001 16.6023 20.0001 17.6568V24.7136C19.9998 24.8158 20.0197 24.917 20.0586 25.0114C20.0976 25.1059 20.1548 25.1917 20.2271 25.2639C20.2993 25.3362 20.3851 25.3934 20.4795 25.4324C20.574 25.4713 20.6752 25.4912 20.7773 25.4909H24.641C24.7431 25.4912 24.8443 25.4713 24.9388 25.4324C25.0332 25.3934 25.119 25.3362 25.1913 25.2639C25.2635 25.1917 25.3207 25.1059 25.3597 25.0114Z" fill="white"/>
</svg>
